<svg xmlns="http://www.w3.org/2000/svg" xmlns:xlink="http://www.w3.org/1999/xlink" xmlns:lucid="lucid" width="2843" height="1163"><g transform="translate(641.5 -1478.5)" lucid:page-tab-id="0_0"><path d="M-1000 1000h3500v2000h-3500z" fill="#fff"/><path d="M-640 1486a6 6 0 0 1 6-6h2828a6 6 0 0 1 6 6v1148a6 6 0 0 1-6 6H-634a6 6 0 0 1-6-6z" stroke="#242f3e" stroke-width="3" fill="#fff"/><path d="M-640 1480h56v56h-56v-56z" stroke="#fff" stroke-opacity="0" fill="#242f3e"/><path d="M-621.78 1505.87c-.04.48.04.87.17 1.34.1.4.28.7.48 1.08.04.1.08.2.08.33 0 .2-.12.36-.28.46l-.95.62c-.12.1-.25.13-.37.13-.16 0-.33-.06-.45-.2-.2-.2-.36-.43-.52-.7-.17-.25-.3-.53-.46-.86-1.1 1.37-2.62 2.1-4.4 2.06-1.14.06-2.12-.3-2.95-1.08-.78-.8-1.15-1.76-1.1-2.85-.05-1.23.4-2.28 1.35-3.08 1.07-.86 2.3-1.23 3.65-1.16.58 0 1.03.02 1.6.1.58.1 1.1.2 1.73.33v-1.1c.08-.88-.16-1.67-.7-2.37-.74-.56-1.56-.8-2.46-.7-.53 0-1.03.07-1.6.2-.58.13-1.03.3-1.6.5l-.5.2h-.24c-.2 0-.33-.16-.33-.45v-.75c0-.18.04-.34.12-.5.12-.16.24-.26.4-.33.66-.3 1.2-.5 1.9-.67.77-.2 1.47-.3 2.3-.28 1.47-.13 2.78.26 3.9 1.2.94 1.05 1.35 2.28 1.22 3.67zm-6.07 2.28c.57 0 1.06-.1 1.6-.28.57-.2 1.02-.5 1.43-.96.25-.27.42-.57.5-.93.12-.45.16-.84.16-1.3v-.67c-.53-.1-.94-.17-1.44-.2h-1.4c-.8-.08-1.55.12-2.2.58-.54.45-.8 1.04-.75 1.73-.04.62.13 1.16.54 1.6.44.38.97.52 1.55.45zm12 1.6c-.22.02-.42-.03-.6-.15-.15-.17-.23-.36-.32-.6l-3.5-11.5-.1-.62c0-.24.1-.37.36-.37h1.47c.2 0 .37.04.57.15.17.18.25.37.3.6l2.5 9.96 2.38-9.93c0-.24.08-.44.28-.6.17-.12.37-.16.58-.14h1.2c.24-.02.4.02.6.13.17.2.25.37.3.6l2.33 9.95 2.56-10c.04-.2.16-.4.33-.58.15-.1.36-.17.56-.14h1.4c.16 0 .33.12.37.3v.31s0 .2-.12.35l-3.6 11.53c-.05.22-.13.42-.3.6-.2.1-.37.14-.57.13h-1.27c-.25.04-.46-.02-.62-.15-.16-.16-.25-.36-.3-.6l-2.3-9.6-2.28 9.6c-.05.24-.13.43-.3.6-.2.13-.4.2-.6.16zm19.2.38c-.82 0-1.5-.07-2.3-.25-.65-.13-1.14-.3-1.72-.6-.2-.1-.37-.23-.45-.4v-.02c-.08-.14-.12-.28-.12-.43v-.75c0-.3.12-.46.32-.46h.3l.36.15c.58.24 1.03.4 1.6.5.62.15 1.15.2 1.8.2.8.06 1.5-.1 2.2-.48.48-.32.77-.83.73-1.42.04-.4-.13-.76-.38-1.04-.46-.4-.95-.65-1.52-.8l-2.18-.67c-.95-.26-1.73-.74-2.38-1.5-.5-.66-.74-1.36-.74-2.2 0-.58.12-1.07.4-1.6.3-.5.63-.88 1.08-1.2.5-.4.98-.62 1.6-.8.66-.17 1.2-.25 1.9-.24.32-.03.6-.03.97 0l1 .16.8.23.67.25c.16.1.28.22.45.38.08.15.12.3.12.5v.7c0 .32-.12.47-.37.47-.2-.03-.37-.1-.57-.18-.95-.43-1.8-.6-2.88-.58-.7-.04-1.3.1-1.97.4-.5.3-.74.8-.7 1.36 0 .4.13.76.46 1.05.5.4.98.65 1.6.82l2.1.67c.94.24 1.68.7 2.3 1.44.48.64.7 1.3.7 2.1 0 .63-.13 1.17-.38 1.73-.3.55-.62.95-1.1 1.32-.5.4-1 .66-1.6.84-.75.23-1.4.33-2.15.34zM-593.9 1517.48c-5.6 3.82-11.36 5.58-18.15 5.56-8.54.05-15.82-2.74-22.16-8.45-.5-.42 0-1 .48-.68 7.07 4.05 14.02 5.9 22.2 5.9 6.1-.04 11.3-1.1 16.93-3.47.83-.35 1.52.55.7 1.13z" stroke="#fff" stroke-opacity="0" fill="#fff"/><path d="M-591.84 1515.2c-.64-.82-4.16-.38-5.75-.2-.46 0-.53-.36-.1-.66 2.8-1.98 7.42-1.4 8-.74.6.67-.14 5.28-2.78 7.5-.4.33-.78.13-.6-.3.54-1.52 1.86-4.83 1.24-5.6z" stroke="#fff" stroke-opacity="0" fill="#fff"/><use xlink:href="#a" transform="matrix(1,0,0,1,-569,1500) translate(0 21.52777777777778)"/><use xlink:href="#b" transform="matrix(1,0,0,1,-569,1500) translate(91.92708333333331 21.52777777777778)"/><use xlink:href="#c" transform="matrix(1,0,0,1,-569,1500) translate(209.6245659722222 21.52777777777778)"/><use xlink:href="#d" transform="matrix(1,0,0,1,-569,1500) translate(280.37109375 21.52777777777778)"/><path d="M512.45 1821.78H491.7c-.94 0-1.7-.76-1.7-1.7v-2.54c0-9.48 6.24-17.44 15.5-19.67.42-.1.8-.04 1.2.17 2.73 1.46 5.68 1.46 8.4 0 .4-.2.8-.26 1.22-.17 2.42.6 4.43 1.47 6.5 2.86l-1.9 2.82c-1.55-1-3-1.67-4.8-2.15-3.45 1.58-7 1.58-10.44 0-7.38 2.06-12.27 8.5-12.27 16.14v.84h19.05z" stroke="#fff" stroke-opacity="0" fill="#232f3e"/><path d="M510.88 1802.46c-6.17 0-11.17-5-11.17-11.14 0-6.16 5-11.15 11.18-11.15 6.16-.07 11.2 4.88 11.26 11 .04 4.27-2.1 7.9-5.86 9.9-1.73.97-3.4 1.4-5.4 1.4zm0-18.9c-4.3 0-7.83 3.45-7.85 7.76 0 2.92 1.48 5.4 4.06 6.8 2.43 1.3 5.12 1.3 7.57 0 2.6-1.4 4.1-3.95 4.06-6.9-.05-4.27-3.57-7.68-7.85-7.64zM568.32 1821.78h-20.75v-3.4h19.04v-.83c0-7.67-4.9-14.1-12.25-16.17-3.45 1.6-7 1.6-10.46 0-1.82.5-3.3 1.2-4.84 2.28l-1.94-2.8c2.07-1.44 4.08-2.35 6.5-2.97.44-.1.86-.06 1.26.16 2.7 1.46 5.7 1.46 8.42 0 .4-.22.8-.27 1.2-.17 9.25 2.2 15.5 10.16 15.5 19.65v2.53c0 .94-.76 1.68-1.68 1.7z" stroke="#fff" stroke-opacity="0" fill="#232f3e"/><path d="M549.08 1802.46c-6.2 0-11.23-5.05-11.23-11.25s5.06-11.2 11.28-11.2c6.2 0 11.23 5.05 11.23 11.25 0 4.23-2.14 7.82-5.85 9.84-1.75.94-3.44 1.36-5.42 1.36zm0-18.9c-4.3 0-7.8 3.45-7.83 7.76-.02 2.92 1.46 5.42 4.05 6.8 2.43 1.3 5.13 1.3 7.6 0 2.62-1.4 4.13-3.97 4.08-6.95-.1-4.27-3.62-7.7-7.9-7.6zM557.2 1860h-54.46c-.92 0-1.67-.75-1.67-1.7v-3.6c-.06-13.1 8.6-24.1 21.32-27.18.46-.13.86-.07 1.27.13 4.04 2.18 8.5 2.18 12.6 0 .34-.2.75-.26 1.2-.13 12.78 3.06 21.45 14.06 21.4 27.17v3.6c0 .95-.76 1.7-1.68 1.7zm-52.72-3.38h50.97v-1.92c0-11.27-7.28-20.74-18.2-23.66-4.8 2.3-9.83 2.3-14.62 0-10.93 2.92-18.15 12.4-18.15 23.65z" stroke="#fff" stroke-opacity="0" fill="#232f3e"/><path d="M530.02 1832.64c-2.7 0-5-.58-7.4-1.86-7.4-4.07-10.13-13.34-6.1-20.77 4.1-7.4 13.38-10.12 20.83-6.08 7.42 4.07 10.15 13.34 6.1 20.77-1.47 2.68-3.4 4.6-6.1 6.08-2.36 1.28-4.66 1.86-7.33 1.86zm0-26.76c-4.44-.06-8.27 2.17-10.42 6.1-3.07 5.64-.98 12.74 4.7 15.83 3.67 1.97 7.72 1.97 11.4 0 3.95-2.13 6.22-5.95 6.16-10.42-.1-6.42-5.4-11.6-11.84-11.5z" stroke="#fff" stroke-opacity="0" fill="#232f3e"/><path d="M568.78 1821.78h-39.72c-.68 0-1.23-.54-1.23-1.23v-2.64c-.04-9.53 6.3-17.56 15.56-19.8.33-.1.63-.06.92.08 2.95 1.6 6.2 1.6 9.2 0 .25-.14.54-.2.88-.1 9.32 2.24 15.64 10.27 15.6 19.83v2.65c0 .7-.55 1.23-1.22 1.23zm-38.46-2.46h37.2v-1.4c0-8.22-5.32-15.13-13.3-17.27-3.5 1.7-7.16 1.7-10.66 0-7.97 2.14-13.24 9.05-13.24 17.26z" stroke="#fff" stroke-opacity="0" stroke-width=".73" fill="#fff" fill-opacity="0"/><path d="M530.94 1821.78h-39.72c-.67 0-1.22-.54-1.22-1.23v-2.64c-.04-9.53 6.28-17.56 15.56-19.8.34-.1.63-.06.93.08 2.94 1.6 6.18 1.6 9.18 0 .25-.14.55-.2.9-.1 9.3 2.24 15.63 10.27 15.6 19.83v2.65c0 .7-.56 1.23-1.24 1.23zm-38.45-2.46h37.18v-1.4c0-8.22-5.3-15.13-13.28-17.27-3.5 1.7-7.17 1.7-10.67 0-7.97 2.14-13.24 9.05-13.24 17.26z" stroke="#fff" stroke-opacity="0" stroke-width=".73" fill="#fff" fill-opacity="0"/><use xlink:href="#e" transform="matrix(1,0,0,1,460,1869) translate(39.34136284722223 21.52777777777778)"/><path d="M-300 1874.6c-30.12 0-54.6-24.48-54.6-54.6s24.48-54.6 54.6-54.6 54.6 24.48 54.6 54.6-24.48 54.6-54.6 54.6zm0-114.6c-33.12 0-60 26.88-60 60 0 33.12 26.88 60 60 60 33.12 0 60-26.88 60-60 0-33.12-26.88-60-60-60zm-18.48 90.72h-14.64l17.4-36.24 7.32 15-10.08 21.24zm5.16-43.8c-.48-.96-1.44-1.56-2.52-1.56-.96 0-1.92.6-2.4 1.56l-21.6 45.36c-.36.84-.36 1.8.12 2.64.48.72 1.44 1.2 2.28 1.2h20.76c.96 0 1.92-.6 2.4-1.56l11.28-23.88c.36-.72.36-1.56 0-2.4l-10.32-21.36zm46.44 43.8h-14.88l-27.12-58.08c-.36-.96-1.32-1.56-2.4-1.56h-9.84v-11.28h19.68l26.88 58.08c.48.96 1.44 1.56 2.52 1.56h5.16v11.28zm2.64-16.8h-6.12l-26.88-57.96c-.48-1.08-1.44-1.68-2.4-1.68h-24.24c-1.44 0-2.64 1.2-2.64 2.76l-.12 16.68c0 .72.36 1.44.84 1.92.48.6 1.2.84 1.92.84h10.8l27.12 58.08c.36.96 1.32 1.56 2.4 1.56h19.32c1.56 0 2.76-1.2 2.76-2.76v-16.68c0-1.44-1.2-2.76-2.76-2.76z" stroke="#000" stroke-opacity="0" fill="#ed7100"/><use xlink:href="#f" transform="matrix(1,0,0,1,-390,1889) translate(47.89930555555556 21.52777777777778)"/><use xlink:href="#g" transform="matrix(1,0,0,1,-390,1889) translate(39.831814236111114 53.79340277777778)"/><path d="M1520 2434.6c-30.12 0-54.6-24.48-54.6-54.6s24.48-54.6 54.6-54.6 54.6 24.48 54.6 54.6-24.48 54.6-54.6 54.6zm0-114.6c-33.12 0-60 26.88-60 60 0 33.12 26.88 60 60 60 33.12 0 60-26.88 60-60 0-33.12-26.88-60-60-60zm-18.48 90.72h-14.64l17.4-36.24 7.32 15-10.08 21.24zm5.16-43.8c-.48-.96-1.44-1.56-2.52-1.56-.96 0-1.92.6-2.4 1.56l-21.6 45.36c-.36.84-.36 1.8.12 2.64.48.72 1.44 1.2 2.28 1.2h20.76c.96 0 1.92-.6 2.4-1.56l11.28-23.88c.36-.72.36-1.56 0-2.4l-10.32-21.36zm46.44 43.8h-14.88l-27.12-58.08c-.36-.96-1.32-1.56-2.4-1.56h-9.84v-11.28h19.68l26.88 58.08c.48.96 1.44 1.56 2.52 1.56h5.16v11.28zm2.64-16.8h-6.12l-26.88-57.96c-.48-1.08-1.44-1.68-2.4-1.68h-24.24c-1.44 0-2.64 1.2-2.64 2.76l-.12 16.68c0 .72.36 1.44.84 1.92.48.6 1.2.84 1.92.84h10.8l27.12 58.08c.36.96 1.32 1.56 2.4 1.56h19.32c1.56 0 2.76-1.2 2.76-2.76v-16.68c0-1.44-1.2-2.76-2.76-2.76z" stroke="#000" stroke-opacity="0" fill="#ed7100"/><use xlink:href="#h" transform="matrix(1,0,0,1,1430,2449) translate(12.526041666666671 21.52777777777778)"/><use xlink:href="#i" transform="matrix(1,0,0,1,1430,2449) translate(102.97743055555556 21.52777777777778)"/><use xlink:href="#j" transform="matrix(1,0,0,1,1430,2449) translate(36.84244791666667 53.79340277777778)"/><path d="M960 2320h120v120H960v-120z" stroke="#000" stroke-opacity="0" fill="#7aa116"/><path d="M1051.24 2384.37l.56-4.12c5.33 3.2 5.4 4.54 5.4 4.54s-.96.74-5.96-.43zm-2.9-.84c-9.22-2.77-21.98-8.65-27.15-11.1v-.07c0-1.94-1.62-3.62-3.64-3.62s-3.63 1.68-3.63 3.62c0 2 1.6 3.6 3.63 3.6.9 0 1.7-.33 2.26-.83 6.14 2.85 18.82 8.65 28.1 11.42l-3.7 25.8v.24c0 2.26-10.1 6.38-26.5 6.38-16.64 0-26.8-4.12-26.8-6.4v-.24l-7.68-55.78c6.62 4.54 20.83 6.98 34.48 6.98 13.57 0 27.78-2.44 34.4-6.98l-3.8 26.97zm-65.9-32.85c.15-1.93 11.46-9.66 35.28-9.66s35.13 7.73 35.3 9.66v.68c-1.38 4.45-16.08 9.15-35.3 9.15-19.3 0-34-4.7-35.3-9.14v-.68zm73.56.1c0-5.22-14.94-12.78-38.28-12.78-23.34 0-38.28 7.56-38.28 12.77l.16 1.1 8.32 60.8c.16 6.8 18.33 9.33 29.8 9.33 14.2 0 29.32-3.28 29.48-9.32l3.63-25.37c2.02.5 3.64.76 4.93.76 1.78 0 3-.42 3.7-1.34.66-.67.82-1.5.66-2.44-.32-2.1-2.83-4.36-7.83-7.22l3.54-25.12.16-1.17z" stroke="#000" stroke-opacity="0" fill="#fff"/><use xlink:href="#k" transform="matrix(1,0,0,1,930,2449) translate(9.216579861111114 21.52777777777778)"/><use xlink:href="#l" transform="matrix(1,0,0,1,930,2449) translate(43.450520833333336 21.52777777777778)"/><use xlink:href="#m" transform="matrix(1,0,0,1,930,2449) translate(94.55729166666666 21.52777777777778)"/><use xlink:href="#n" transform="matrix(1,0,0,1,930,2449) translate(54.31749131944444 53.79340277777778)"/><path d="M960 1760h120v120H960v-120z" stroke="#000" stroke-opacity="0" fill="#8c4fff"/><path d="M1042.68 1838.14c0-2.43-2.02-4.45-4.54-4.45-2.43 0-4.45 2-4.45 4.44 0 2.52 2 4.54 4.44 4.54 2.52 0 4.54-2.02 4.54-4.54zm3.02 0c0 4.2-3.36 7.56-7.56 7.56-4.1 0-7.47-3.36-7.47-7.56 0-4.1 3.36-7.47 7.47-7.47 4.2 0 7.56 3.36 7.56 7.47zm-40.15-21.58c0-2.52-2-4.54-4.45-4.54-2.52 0-4.54 2.02-4.54 4.54 0 2.43 2.02 4.45 4.54 4.45 2.44 0 4.45-2 4.45-4.44zm3.03 0c0 4.1-3.36 7.47-7.48 7.47-4.12 0-7.48-3.36-7.48-7.47 0-4.12 3.36-7.56 7.48-7.56 4.12 0 7.48 3.44 7.48 7.56zm11-23.52c0 2.43 2.02 4.45 4.54 4.45 2.43 0 4.45-2.03 4.45-4.46 0-2.52-2.02-4.54-4.45-4.54-2.52 0-4.54 2.02-4.54 4.54zm-3.02 0c0-4.2 3.44-7.56 7.56-7.56 4.1 0 7.47 3.36 7.47 7.56 0 4.1-3.37 7.47-7.48 7.47-4.12 0-7.56-3.35-7.56-7.46zm42.42 26.96c0-13.94-7.48-26.8-19.5-33.77-2.1.5-4.2 1.1-6.8 2.02l-1-2.86c1.34-.5 2.52-.85 3.7-1.18-4.8-2.1-10.1-3.2-15.38-3.2-2.52 0-5.04.26-7.48.76 1.77 1 3.36 2.02 4.88 3.2l-1.85 2.34c-2.1-1.6-4.37-2.94-7.23-4.53-14.78 4.6-25.36 17.63-27.04 32.92 3.1-.68 6.04-1 9.32-1.1l.08 3.03c-3.44.08-6.38.42-9.66 1.17v1.18c0 13.02 6.4 24.95 16.97 32.17-1.86-5.63-2.86-10.92-2.86-16.04 0-2.94.58-5.38 1.1-7.9.07-.67.24-1.26.32-1.85l2.94.6c-.08.58-.25 1.25-.33 1.84-.5 2.52-1 4.7-1 7.3 0 5.9 1.25 11.94 3.94 18.5 5.55 2.93 11.6 4.36 17.9 4.36 4.12 0 8.15-.68 12-1.94 1.52-2.94 2.62-5.8 3.62-8.98l2.86.84c-.67 2.35-1.5 4.45-2.44 6.63 2.44-1.1 4.7-2.43 6.9-4.03-.5-1.26-1.1-2.52-1.7-3.78l2.7-1.34c.5 1.1 1 2.18 1.43 3.2 8.65-7.4 13.6-18.07 13.6-29.58zm3.02 0c0 13.1-5.96 25.2-16.3 33.26-2.6 1.94-5.37 3.62-8.3 4.96-1.27.6-2.53 1.1-3.88 1.5-4.28 1.52-8.82 2.28-13.52 2.28-6.9 0-13.78-1.68-19.82-4.96-13.7-7.3-22.18-21.5-22.18-37.04 0-1 0-1.85.08-2.52 1-17.56 13.02-32.68 29.9-37.72 3.87-1.17 7.9-1.76 12.02-1.76 7.22 0 14.28 1.85 20.5 5.38 13.27 7.4 21.5 21.42 21.5 36.62zm-46.03-21.84c-3.1 2.77-5.63 5.7-8.5 10.16l-2.5-1.6c3.02-4.7 5.7-7.9 9.07-10.74l1.93 2.18zm-4.54 19.5c7.3 2.5 13.7 6.46 20 12.5l-2.1 2.2c-5.97-5.72-12.02-9.5-18.9-11.86l1-2.85zm20.08-17.65c5.64 8.58 8.74 17.98 9.42 27.98l-3.03.25c-.6-9.5-3.62-18.48-8.9-26.54l2.5-1.7z" stroke="#000" stroke-opacity="0" fill="#fff"/><use xlink:href="#o" transform="matrix(1,0,0,1,930,1889) translate(47.16145833333334 21.52777777777778)"/><use xlink:href="#p" transform="matrix(1,0,0,1,930,1889) translate(32.06271701388889 53.79340277777778)"/><path d="M1920 2320h120v120h-120v-120z" stroke="#fff" stroke-opacity="0" stroke-width="2" fill="#3b48cc"/><path d="M2000.4 2384.78l-10.6 10.55c2-.56 3.65-1.2 5.5-2.24 1.1.63 1.68 1.67 1.9 2.87 0 2.96-6.2 6.16-15.4 7.44-3.05.4-5.55.57-8.6.57h-1.58c-12.95-.24-22.42-4.32-22.42-8 .17-1.2.82-2.16 1.9-2.88 5.02 2.8 13.18 4.47 22.1 4.47h.17l.92-3.2h-1.1c-8.8 0-16.98-1.76-21.28-4.47-1.74-1.12-2.72-2.4-2.72-3.44v-7.43c4.9 3.75 14.64 5.67 24 5.67 1.25 0 2.5 0 3.76-.08l.92-3.2c-1.63.08-3.1.16-4.68.16-13.7 0-24-4.23-24-8 .17-1.27.82-2.23 1.9-2.87 4.42 2.5 11.22 4 18.9 4.4l.1-3.2c-7.56-.4-14.42-2-18.18-4.47-1.74-1.03-2.66-2.3-2.72-3.43v-7.36c4.9 3.76 14.64 5.68 24 5.68h.33l1.74-3.2h-2.07c-13.7 0-24-4.16-24-8 0-3.75 10.3-8 24-8 4.85 0 8.98.5 13.72 1.6h8.8c-4.83-2.94-13.1-4.78-22.52-4.78-13.17 0-27.2 3.9-27.2 11.2V2364c.1 1.9.92 3.5 2.44 4.7-1.52 1.3-2.34 2.9-2.45 4.8v12.8c.1 2 .92 3.6 2.44 4.88-1.52 1.2-2.34 2.8-2.45 4.8v13.1c.43 7.03 14.2 10.8 27.2 10.8s26.78-3.77 27.2-10.88V2395.88c-.04-1.9-.9-3.6-2.44-4.8 1.53-1.18 2.34-2.86 2.45-4.78zm-3.2 23.98c0 3.76-10.28 8-24 8-13.7 0-24-4.16-24-8v-7.35c4.9 3.68 14.64 5.68 24 5.68s19.1-2 24-5.67z" stroke="#fff" stroke-opacity="0" stroke-width="2" fill="#fff"/><path d="M1956 2364.03c0 1.1-.9 2-2 2s-2-.9-2-2 .9-2 2-2 2 .9 2 2zM1956 2386.43c0 1.1-.9 2-2 2s-2-.9-2-2 .9-2 2-2 2 .9 2 2zM1956 2408.83c0 1.1-.9 2-2 2s-2-.9-2-2 .9-2 2-2 2 .9 2 2zM1977.2 2402.37c-.3 0-.53-.06-.82-.22-.64-.38-.92-1.14-.72-1.85l8.98-29.95h-9.06c-.88.06-1.6-.65-1.6-1.58 0-.27.04-.54.2-.76l9.58-19.2c.28-.56.8-.88 1.45-.88h20.82c.88-.06 1.6.65 1.64 1.52.04.22 0 .38-.04.6l-4.13 12.25h8.97c.88.05 1.6.75 1.6 1.63 0 .43-.16.76-.44 1.1l-35.2 36.8c-.32.38-.72.54-1.24.54zm1-35.18h8.6c.53 0 .97.2 1.3.6.27.43.4.92.23 1.4l-7.7 25.6 28.03-29.24h-7.46c-.88 0-1.64-.65-1.68-1.53 0-.2 0-.43.08-.6l4.1-12.3h-17.6z" stroke="#fff" stroke-opacity="0" stroke-width="2" fill="#fff"/><use xlink:href="#q" transform="matrix(1,0,0,1,1890,2449) translate(31.248914930555564 21.52777777777778)"/><use xlink:href="#r" transform="matrix(1,0,0,1,1890,2449) translate(5.212673611111114 53.79340277777778)"/><use xlink:href="#s" transform="matrix(1,0,0,1,1890,2449) translate(75.95920138888889 53.79340277777778)"/><path d="M1522.54 2318.5h-2.95l-.36-143.03h2.95zm-.4-168.85h-2.96l-.5-200.38h2.96z" stroke="#3a414a" stroke-width=".05" fill="#3a414a"/><path d="M1522.55 2320.1l-2.55-.1-.4.02v-1.55h2.94z" fill="#3a414a"/><path stroke="#3a414a" stroke-width=".05" fill="#3a414a"/><path d="M1522.35 1892h-4.64l2.3-7.15z" fill="#3a414a"/><path d="M1523.9 1892h-3.1l-.78-2.37-.76 2.37h-3.1l3.84-11.92z" stroke="#3a414a" stroke-width=".05" fill="#3a414a"/><use xlink:href="#t" transform="matrix(1,0,0,1,1345.2140898978264,2149.652223596231) translate(0 20.666666666666668)"/><use xlink:href="#u" transform="matrix(1,0,0,1,1345.2140898978264,2149.652223596231) translate(49.27083333333334 20.666666666666668)"/><use xlink:href="#v" transform="matrix(1,0,0,1,1345.2140898978264,2149.652223596231) translate(121.41666666666669 20.666666666666668)"/><path d="M880 2066a6 6 0 0 1 6-6h1228a6 6 0 0 1 6 6v488a6 6 0 0 1-6 6H886a6 6 0 0 1-6-6z" fill-opacity="0"/><path d="M926.93 2060h40.94m20.46 0h40.94m20.46 0h40.94m20.46 0h40.94m20.46 0h40.94m20.46 0h40.94m20.46 0h40.94m20.46 0h40.94m20.46 0h40.94m20.46 0h40.94m20.46 0h40.94m20.46 0h40.94m20.46 0h40.94m20.46 0h40.94m20.46 0h40.94m20.46 0h40.94m20.46 0h40.94m20.46 0h40.94m20.46 0h40.94m20.46 0H2114a6 6 0 0 1 6 6v20.33m0 20.34v40.66m0 20.34v40.66m0 20.34v40.66m0 20.34v40.66m0 20.34v40.66m0 20.34v40.66m0 20.34v40.66m0 20.34V2554a6 6 0 0 1-6 6h-20.47m-20.46 0h-40.94m-20.46 0h-40.94m-20.46 0h-40.94m-20.46 0h-40.94m-20.46 0h-40.94m-20.46 0h-40.94m-20.46 0h-40.94m-20.46 0h-40.94m-20.46 0h-40.94m-20.46 0h-40.94m-20.46 0h-40.94m-20.46 0h-40.94m-20.46 0h-40.94m-20.46 0h-40.94m-20.46 0h-40.94m-20.46 0h-40.94m-20.46 0h-40.94m-20.46 0h-40.94m-20.46 0h-40.94m-20.46 0H886a6 6 0 0 1-6-6v-20.33m0-20.34v-40.66m0-20.34v-40.66m0-20.34v-40.66m0-20.34v-40.66m0-20.34v-40.66m0-20.34v-40.66m0-20.34v-40.66m0-20.34V2066a6 6 0 0 1 6-6h20.47" stroke="#979ea8" stroke-width="4" fill="none"/><path d="M206.47 1821.47h-25.85v-2.94h25.85zm282.03 0h-44.97v-2.94h44.97z" stroke="#3a414a" stroke-width=".05" fill="#3a414a"/><path d="M490 1820.55l.36.88.12.04h-2.02v-2.94H490z" fill="#3a414a"/><path stroke="#3a414a" stroke-width=".05" fill="#3a414a"/><path d="M179.12 1824.63l-14.27-4.63 14.27-4.63z" fill="#3a414a"/><path d="M180.6 1826.66l-20.52-6.66 20.5-6.66zm-10.97-6.66l8.02 2.6v-5.2z" stroke="#3a414a" stroke-width=".05" fill="#3a414a"/><use xlink:href="#w" transform="matrix(1,0,0,1,206.46875,1807.09375) translate(0 20.666666666666668)"/><use xlink:href="#x" transform="matrix(1,0,0,1,206.46875,1807.09375) translate(76.70833333333334 20.666666666666668)"/><use xlink:href="#y" transform="matrix(1,0,0,1,206.46875,1807.09375) translate(154.85416666666669 20.666666666666668)"/><path d="M-165.52 1821.47h-53.86v-2.94h53.86zm204.02 0h-72.98v-2.94H38.5z" stroke="#3a414a" stroke-width=".05" fill="#3a414a"/><path d="M40 1821.47h-1.54v-2.94H40z" fill="#3a414a"/><path stroke="#3a414a" stroke-width=".05" fill="#3a414a"/><path d="M-220.88 1824.63l-14.27-4.63 14.27-4.63z" fill="#3a414a"/><path d="M-219.4 1826.66l-20.52-6.66 20.5-6.66zm-10.97-6.66l8.02 2.6v-5.2z" stroke="#3a414a" stroke-width=".05" fill="#3a414a"/><use xlink:href="#z" transform="matrix(1,0,0,1,-165.52083333333334,1809.2447916666667) translate(0 17.22222222222222)"/><use xlink:href="#A" transform="matrix(1,0,0,1,-165.52083333333334,1809.2447916666667) translate(61.71006944444444 17.22222222222222)"/><path d="M1158.63 2381.47h-77.13v-2.94h77.13zm280.75 0h-112.74v-2.94h112.74z" stroke="#3a414a" stroke-width=".05" fill="#3a414a"/><path d="M1081.54 2381.47H1080v-2.94h1.54z" stroke="#3a414a" stroke-width=".05" fill="#3a414a"/><path d="M1455.15 2380l-14.27 4.64v-9.28z" fill="#3a414a"/><path d="M1459.92 2380l-20.52 6.66v-13.32zm-17.57 2.6l8.02-2.6-8-2.6z" stroke="#3a414a" stroke-width=".05" fill="#3a414a"/><use xlink:href="#B" transform="matrix(1,0,0,1,1158.6322637570586,2367.09375) translate(0 20.666666666666668)"/><use xlink:href="#C" transform="matrix(1,0,0,1,1158.6322637570586,2367.09375) translate(32.864583333333336 20.666666666666668)"/><use xlink:href="#D" transform="matrix(1,0,0,1,1158.6322637570586,2367.09375) translate(95.28125 20.666666666666668)"/><path d="M1285.84 1821.47h-185.22v-2.94h185.22zm172.66 0h-111.96v-2.94h111.96z" stroke="#3a414a" stroke-width=".05" fill="#3a414a"/><path d="M1099.12 1824.63l-14.27-4.63 14.27-4.63z" fill="#3a414a"/><path d="M1100.6 1826.66l-20.52-6.66 20.52-6.66zm-10.97-6.66l8 2.6v-5.2z" stroke="#3a414a" stroke-width=".05" fill="#3a414a"/><path d="M1460 1821.47h-1.54v-2.94h1.54z" fill="#3a414a"/><path stroke="#3a414a" stroke-width=".05" fill="#3a414a"/><use xlink:href="#E" transform="matrix(1,0,0,1,1285.8400728132992,1807.09375) translate(0 20.666666666666668)"/><path d="M1673.04 2381.47h-91.54v-2.94h91.54zm226.34 0h-72.42v-2.94h72.42z" stroke="#3a414a" stroke-width=".05" fill="#3a414a"/><path d="M1581.54 2381.47H1580v-2.94h1.54z" stroke="#3a414a" stroke-width=".05" fill="#3a414a"/><path d="M1915.15 2380l-14.27 4.64v-9.28z" fill="#3a414a"/><path d="M1919.92 2380l-20.52 6.66v-13.32zm-17.57 2.6l8.02-2.6-8-2.6z" stroke="#3a414a" stroke-width=".05" fill="#3a414a"/><use xlink:href="#F" transform="matrix(1,0,0,1,1673.0416666666667,2367.09375) translate(0 20.666666666666668)"/><use xlink:href="#G" transform="matrix(1,0,0,1,1673.0416666666667,2367.09375) translate(59.04166666666667 20.666666666666668)"/><path d="M615.08 1821.47h-24.46v-2.94h24.46zm343.42 0h-43.58v-2.94h43.58z" stroke="#3a414a" stroke-width=".05" fill="#3a414a"/><path d="M960 1821.47h-1.54v-2.94H960z" fill="#3a414a"/><path stroke="#3a414a" stroke-width=".05" fill="#3a414a"/><path d="M589.12 1824.63l-14.27-4.63 14.27-4.63z" fill="#3a414a"/><path d="M590.6 1826.66l-20.52-6.66 20.5-6.66zm-10.97-6.66l8 2.6v-5.2z" stroke="#3a414a" stroke-width=".05" fill="#3a414a"/><use xlink:href="#H" transform="matrix(1,0,0,1,615.0833333333333,1807.09375) translate(0 20.666666666666668)"/><use xlink:href="#I" transform="matrix(1,0,0,1,615.0833333333333,1807.09375) translate(48.51041666666667 20.666666666666668)"/><use xlink:href="#J" transform="matrix(1,0,0,1,615.0833333333333,1807.09375) translate(136.71875 20.666666666666668)"/><use xlink:href="#K" transform="matrix(1,0,0,1,615.0833333333333,1807.09375) translate(211.85416666666669 20.666666666666668)"/><path d="M900 2066a6 6 0 0 1 6-6h228a6 6 0 0 1 6 6v48a6 6 0 0 1-6 6H906a6 6 0 0 1-6-6z" fill="none"/><use xlink:href="#L" transform="matrix(1,0,0,1,900,2060) translate(26.244574652777786 38.083767361111114)"/><use xlink:href="#M" transform="matrix(1,0,0,1,900,2060) translate(96.99110243055556 38.083767361111114)"/><path d="M-51.75 1641.47h-342.2l-.76.07-.7.16-.65.27-.6.37-.55.46-.46.54-.37.6-.27.66-.16.7-.06.76v167.88l.06.77.16.7.27.65.37.6.46.55.54.46.6.37.66.27.7.16.76.07h32.44v2.94h-32.56l-1.1-.08-1.15-.3-1.1-.44-1-.6-.9-.77-.75-.9-.6-1-.46-1.1-.3-1.13-.08-1.1v-168.13l.1-1.1.27-1.15.44-1.1.6-1 .77-.9.9-.75 1-.6 1.1-.46 1.13-.3 1.1-.07h342.32zm576.92-2.86l1.14.3 1.1.44 1 .6.9.77.75.9.6 1 .46 1.1.3 1.13.08 1.1v135.6h-2.96v-135.47l-.05-.77-.17-.7-.27-.65-.37-.6-.46-.55-.54-.46-.6-.37-.66-.27-.7-.16-.76-.07H123.9v-2.94h400.16z" stroke="#3a414a" stroke-width=".05" fill="#3a414a"/><path d="M-360 1820l.06 1.47h-1.6v-2.94h1.6z" fill="#3a414a"/><path stroke="#3a414a" stroke-width=".05" fill="#3a414a"/><path d="M530 1797.3l-4.63-14.26h9.26z" fill="#3a414a"/><path d="M530 1802.08l-6.66-20.5h13.32zm-2.6-17.56l2.6 8.02 2.6-8.02z" stroke="#3a414a" stroke-width=".05" fill="#3a414a"/><use xlink:href="#N" transform="matrix(1,0,0,1,-51.74835310765097,1629.2447916666667) translate(0 17.22222222222222)"/><use xlink:href="#O" transform="matrix(1,0,0,1,-51.74835310765097,1629.2447916666667) translate(100.31250000000001 17.22222222222222)"/><use xlink:href="#P" transform="matrix(1,0,0,1,-51.74835310765097,1629.2447916666667) translate(140.9201388888889 17.22222222222222)"/><path d="M40 1760h120v120H40v-120z" stroke="#fff" stroke-opacity="0" fill="#d6242d"/><path d="M117.6 1858.42c-.35 0-.64-.15-.93-.3-.43-.3-.67-.77-.67-1.3v-73.63c0-.55.3-1.1.77-1.4.48-.3 1.08-.3 1.6-.07l20.8 10.22c.56.23.9.77.9 1.38v56.56c.02.76-.4 1.37-1.1 1.6l-20.8 6.92h-.56zm1.63-72.62v68.78l17.6-5.84v-54.4zM82.4 1858.42h-.52l-20.8-6.92c-.67-.23-1.1-.92-1.08-1.6v-56.57c0-.6.33-1.15.9-1.38l20.8-10.22c.52-.23 1.1-.23 1.6.08.48.32.75.85.75 1.4v73.6c0 .54-.24 1-.67 1.3-.3.24-.6.32-1 .32zm-19.2-9.6l17.6 5.83v-68.85l-17.6 8.6z" stroke="#fff" stroke-opacity="0" fill="#fff"/><path d="M116 1804h-4.8v-3.2h4.8zm-9.6 0h-4.8v-3.2h4.8zm-9.6 0H92v-3.2h4.8zm-9.6 0h-4.8v-3.2h4.8zM116 1839.2h-4.8v-3.2h4.8zm-9.6 0h-4.8v-3.2h4.8zm-9.6 0H92v-3.2h4.8zm-9.6 0h-4.8v-3.2h4.8zM92.97 1825.5l-6-5.13c-.68-.57-.76-1.6-.2-2.26l.2-.17 6-5.13 2.07 2.43-4.58 3.97 4.58 3.92zM107.04 1825.5l-2.08-2.42 4.57-3.88-4.6-3.9 2.1-2.5 6 5.12c.68.57.76 1.6.2 2.26-.07.06-.12.12-.2.17z" stroke="#fff" stroke-opacity="0" fill="#fff"/><path d="M95.3 1828.87l6.35-18.8 3.03 1.03-6.35 18.8-3.04-1.03z" stroke="#fff" stroke-opacity="0" stroke-width=".32" fill="#fff"/><g><use xlink:href="#Q" transform="matrix(1,0,0,1,10,1889) translate(26.290147569444457 21.52777777777778)"/><use xlink:href="#R" transform="matrix(1,0,0,1,10,1889) translate(118.21723090277777 21.52777777777778)"/><use xlink:href="#S" transform="matrix(1,0,0,1,10,1889) translate(44.25347222222222 53.79340277777778)"/></g><path d="M880 1646a6 6 0 0 1 6-6h808a6 6 0 0 1 6 6v348a6 6 0 0 1-6 6H886a6 6 0 0 1-6-6z" fill-opacity="0"/><path d="M927.44 1640h41.43m20.72 0h41.43m20.7 0h41.45m20.72 0h41.43m20.72 0h41.44m20.7 0h41.44m20.72 0h41.44m20.7 0h41.45m20.72 0h41.43m20.72 0h41.44m20.7 0h41.45m20.73 0h41.43m20.72 0H1694a6 6 0 0 1 6 6v19.33m0 19.34v38.66m0 19.34v38.66m0 19.34v38.66m0 19.34v38.66m0 19.34v38.66m0 19.34V1994a6 6 0 0 1-6 6h-20.72m-20.72 0h-41.43m-20.72 0h-41.43m-20.7 0h-41.45m-20.72 0h-41.43m-20.72 0h-41.44m-20.7 0h-41.44m-20.72 0h-41.44m-20.7 0h-41.45m-20.72 0h-41.43m-20.72 0h-41.44m-20.7 0h-41.45m-20.73 0h-41.43m-20.72 0H886a6 6 0 0 1-6-6v-19.33m0-19.34v-38.66m0-19.34v-38.66m0-19.34v-38.66m0-19.34v-38.66m0-19.34v-38.66m0-19.34V1646a6 6 0 0 1 6-6h20.72" stroke="#979ea8" stroke-width="4" fill="none"/><path d="M1460 1760h120v120h-120v-120z" stroke="#000" stroke-opacity="0" fill="#7aa116"/><path d="M1551.24 1824.37l.56-4.12c5.33 3.2 5.4 4.54 5.4 4.54s-.96.74-5.96-.43zm-2.9-.84c-9.22-2.77-21.98-8.65-27.15-11.1v-.07c0-1.94-1.62-3.62-3.64-3.62s-3.63 1.68-3.63 3.62c0 2 1.6 3.6 3.63 3.6.9 0 1.7-.33 2.26-.83 6.14 2.85 18.82 8.65 28.1 11.42l-3.7 25.8v.24c0 2.26-10.1 6.38-26.5 6.38-16.64 0-26.8-4.12-26.8-6.4v-.24l-7.68-55.78c6.62 4.54 20.83 6.98 34.48 6.98 13.57 0 27.78-2.44 34.4-6.98l-3.8 26.97zm-65.9-32.85c.15-1.93 11.46-9.66 35.28-9.66s35.13 7.73 35.3 9.66v.68c-1.38 4.45-16.08 9.15-35.3 9.15-19.3 0-34-4.7-35.3-9.14v-.68zm73.56.1c0-5.22-14.94-12.78-38.28-12.78-23.34 0-38.28 7.56-38.28 12.77l.16 1.1 8.32 60.8c.16 6.8 18.33 9.33 29.8 9.33 14.2 0 29.32-3.28 29.48-9.32l3.63-25.37c2.02.5 3.64.76 4.93.76 1.78 0 3-.42 3.7-1.34.66-.67.82-1.5.66-2.44-.32-2.1-2.83-4.36-7.83-7.22l3.54-25.12.16-1.17z" stroke="#000" stroke-opacity="0" fill="#fff"/><g><use xlink:href="#k" transform="matrix(1,0,0,1,1430,1889) translate(17.289496527777786 21.52777777777778)"/><use xlink:href="#T" transform="matrix(1,0,0,1,1430,1889) translate(51.52343750000001 21.52777777777778)"/><use xlink:href="#U" transform="matrix(1,0,0,1,1430,1889) translate(13.079427083333343 53.79340277777778)"/><use xlink:href="#n" transform="matrix(1,0,0,1,1430,1889) translate(95.55555555555556 53.79340277777778)"/></g><path d="M880 1646a6 6 0 0 1 6-6h228a6 6 0 0 1 6 6v48a6 6 0 0 1-6 6H886a6 6 0 0 1-6-6z" fill="none"/><g><use xlink:href="#V" transform="matrix(1,0,0,1,880,1640) translate(44.91861979166667 38.083767361111114)"/><use xlink:href="#W" transform="matrix(1,0,0,1,880,1640) translate(110.63042534722221 38.083767361111114)"/></g><path d="M531.48 2373.94l.05.77.17.7.27.65.37.6.46.55.54.46.6.37.66.27.7.16.76.07h403.32v2.94H535.94l-1.1-.08-1.15-.3-1.1-.44-1-.6-.9-.77-.75-.9-.6-1-.46-1.1-.3-1.13-.08-1.1v-267.1h2.96zm0-292.78h-2.96V1893h2.96zm0-209.16h-2.96v-10.5h2.96z" stroke="#3a414a" stroke-width=".05" fill="#3a414a"/><path d="M955.15 2380l-14.27 4.64v-9.28z" fill="#3a414a"/><path d="M959.92 2380l-20.5 6.66v-13.32zm-17.56 2.6l8-2.6-8-2.6z" stroke="#3a414a" stroke-width=".05" fill="#3a414a"/><path d="M531.48 1861.54h-2.96V1860h2.96z" fill="#3a414a"/><path stroke="#3a414a" stroke-width=".05" fill="#3a414a"/><g><use xlink:href="#t" transform="matrix(1,0,0,1,393.390625,2081.15668716248) translate(0 20.666666666666668)"/><use xlink:href="#u" transform="matrix(1,0,0,1,393.390625,2081.15668716248) translate(49.27083333333334 20.666666666666668)"/><use xlink:href="#J" transform="matrix(1,0,0,1,393.390625,2081.15668716248) translate(121.41666666666669 20.666666666666668)"/><use xlink:href="#X" transform="matrix(1,0,0,1,393.390625,2081.15668716248) translate(196.55208333333337 20.666666666666668)"/></g><path d="M-540 1586a6 6 0 0 1 6-6h848a6 6 0 0 1 6 6v368a6 6 0 0 1-6 6h-848a6 6 0 0 1-6-6z" fill-opacity="0"/><path d="M-493.62 1580h40.38m20.2 0h40.37m20.2 0h40.38m20.2 0h40.38m20.2 0h40.37m20.2 0h40.37m20.2 0h40.37m20.18 0h40.38m20.2 0h40.37m20.2 0H91.9m20.2 0h40.38m20.2 0h40.37m20.2 0h40.37m20.2 0H314a6 6 0 0 1 6 6v20.44m0 20.45v40.88m0 20.44v40.9m0 20.44v40.88m0 20.45v40.88m0 20.44v40.9m0 20.44V1954a6 6 0 0 1-6 6h-20.2m-20.18 0h-40.38m-20.2 0h-40.37m-20.2 0H112.1m-20.2 0H51.52m-20.2 0H-9.04m-20.2 0H-69.6m-20.2 0h-40.37m-20.18 0h-40.38m-20.2 0h-40.37m-20.2 0h-40.38m-20.2 0h-40.38m-20.2 0h-40.37m-20.2 0h-40.37m-20.2 0H-534a6 6 0 0 1-6-6v-20.44m0-20.45v-40.88m0-20.44v-40.9m0-20.44v-40.88m0-20.45v-40.88m0-20.44v-40.9m0-20.44V1586a6 6 0 0 1 6-6h20.2" stroke="#979ea8" stroke-width="4" fill="none"/><path d="M-540 1586a6 6 0 0 1 6-6h248a6 6 0 0 1 6 6v48a6 6 0 0 1-6 6h-248a6 6 0 0 1-6-6z" fill="none"/><g><use xlink:href="#Y" transform="matrix(1,0,0,1,-540,1580) translate(7.8754340277777715 38.083767361111114)"/><use xlink:href="#Z" transform="matrix(1,0,0,1,-540,1580) translate(49.61805555555555 38.083767361111114)"/><use xlink:href="#aa" transform="matrix(1,0,0,1,-540,1580) translate(147.36111111111111 38.083767361111114)"/><use xlink:href="#ab" transform="matrix(1,0,0,1,-540,1580) translate(167.92317708333334 38.083767361111114)"/></g><defs><path d="M52 0l541-1490h220L1361 0h-200l-149-416H398L254 0H52zm404-582h497c-103-290-145-390-251-756-108 377-145 460-246 756" id="ac"/><path d="M158 0v-1118h175l1 205c55-151 181-225 313-225 147 0 245 90 285 228 53-141 190-228 352-228 194 0 352 125 352 384V0h-181v-749c0-161-105-225-225-225-151 0-243 103-243 244V0H807v-767c0-124-93-207-219-207-131 0-250 92-250 270V0H158" id="ad"/><path d="M471 26C259 26 90-98 90-318c0-256 228-303 435-329 202-27 287-16 287-108 0-139-79-219-234-219-161 0-248 86-283 164l-173-57c86-203 278-265 451-265 150 0 419 46 419 395V0H815v-152h-12C765-73 660 26 471 26zm31-159c199 0 310-134 310-271v-155c-30 35-226 55-295 64-131 17-246 59-246 186 0 116 97 176 231 176" id="ae"/><path d="M126 0v-134l627-806v-11H146v-167h839v143L376-178v11h629V0H126" id="af"/><path d="M613 24c-304 0-509-231-509-576 0-350 205-580 509-580 305 0 511 230 511 580 0 345-206 576-511 576zm0-161c226 0 329-195 329-415 0-222-103-419-329-419-223 0-326 196-326 419 0 220 103 415 326 415" id="ag"/><path d="M338-670V0H158v-1118h173l1 207c72-158 192-221 342-221 226 0 378 139 378 422V0H872v-695c0-172-96-275-252-275-161 0-282 109-282 300" id="ah"/><g id="a"><use transform="matrix(0.010850694444444444,0,0,0.010850694444444444,0,0)" xlink:href="#ac"/><use transform="matrix(0.010850694444444444,0,0,0.010850694444444444,15.33203125,0)" xlink:href="#ad"/><use transform="matrix(0.010850694444444444,0,0,0.010850694444444444,34.79817708333333,0)" xlink:href="#ae"/><use transform="matrix(0.010850694444444444,0,0,0.010850694444444444,47.27647569444444,0)" xlink:href="#af"/><use transform="matrix(0.010850694444444444,0,0,0.010850694444444444,59.22309027777778,0)" xlink:href="#ag"/><use transform="matrix(0.010850694444444444,0,0,0.010850694444444444,72.54774305555554,0)" xlink:href="#ah"/></g><path d="M657 26c-323 0-524-166-541-416h195c15 169 171 246 346 246 202 0 356-106 356-265 5-203-294-238-475-293-239-73-380-191-380-389 0-252 224-419 512-419 294 0 499 171 508 396H992c-17-145-151-228-328-228-193 0-321 102-321 242 0 156 175 211 284 241l149 41c160 44 422 134 422 412 0 244-197 432-541 432" id="ai"/><path d="M628 24c-324 0-524-230-524-574 0-343 198-582 503-582 237 0 487 146 487 559v75H286c9 234 145 362 343 362 132 0 231-58 273-172l174 48C1024-91 857 24 628 24zM287-650h624c-17-190-120-322-304-322-192 0-309 151-320 322" id="aj"/><path d="M158 0v-1118h174v172h12c41-113 157-188 290-188 26 0 70 2 91 3v181c-11-2-60-10-108-10-161 0-279 109-279 260V0H158" id="ak"/><path d="M481 0L54-1118h197c107 314 236 620 325 951 87-331 217-637 324-951h197L670 0H481" id="al"/><path d="M338-1490V0H158v-1490h180" id="am"/><path d="M538 24C308 24 148-78 108-271l171-41c32 123 123 178 257 178 156 0 256-77 256-169 0-77-54-128-164-154l-186-44c-203-48-300-148-300-305 0-192 176-326 414-326 230 0 351 112 402 269l-163 42c-31-80-94-158-238-158-133 0-233 69-233 162 0 83 57 129 188 160l169 40c203 48 298 149 298 302 0 196-179 339-441 339" id="an"/><g id="b"><use transform="matrix(0.010850694444444444,0,0,0.010850694444444444,0,0)" xlink:href="#ai"/><use transform="matrix(0.010850694444444444,0,0,0.010850694444444444,14.2578125,0)" xlink:href="#aj"/><use transform="matrix(0.010850694444444444,0,0,0.010850694444444444,27.213541666666664,0)" xlink:href="#ak"/><use transform="matrix(0.010850694444444444,0,0,0.010850694444444444,35.92664930555555,0)" xlink:href="#al"/><use transform="matrix(0.010850694444444444,0,0,0.010850694444444444,47.98177083333333,0)" xlink:href="#aj"/><use transform="matrix(0.010850694444444444,0,0,0.010850694444444444,60.937499999999986,0)" xlink:href="#ak"/><use transform="matrix(0.010850694444444444,0,0,0.010850694444444444,69.65060763888889,0)" xlink:href="#am"/><use transform="matrix(0.010850694444444444,0,0,0.010850694444444444,75.03255208333333,0)" xlink:href="#aj"/><use transform="matrix(0.010850694444444444,0,0,0.010850694444444444,87.98828125,0)" xlink:href="#an"/><use transform="matrix(0.010850694444444444,0,0,0.010850694444444444,99.71788194444444,0)" xlink:href="#an"/></g><path d="M370-1490V0H180v-1490h190" id="ao"/><path d="M611 442c-248 0-391-105-460-228l146-94c47 65 117 165 314 165 178 0 307-82 307-266v-224h-17C863-141 792-18 576-18c-268 0-472-195-472-546 0-346 197-568 476-568 216 0 288 133 326 193h17v-179h175V29c0 289-215 413-487 413zm-5-620c203 0 314-146 314-390 0-237-108-403-314-403-213 0-319 180-319 403 0 230 109 390 319 390" id="ap"/><g id="c"><use transform="matrix(0.010850694444444444,0,0,0.010850694444444444,0,0)" xlink:href="#ao"/><use transform="matrix(0.010850694444444444,0,0,0.010850694444444444,5.967881944444445,0)" xlink:href="#ad"/><use transform="matrix(0.010850694444444444,0,0,0.010850694444444444,25.43402777777778,0)" xlink:href="#ae"/><use transform="matrix(0.010850694444444444,0,0,0.010850694444444444,37.912326388888886,0)" xlink:href="#ap"/><use transform="matrix(0.010850694444444444,0,0,0.010850694444444444,51.54079861111111,0)" xlink:href="#aj"/></g><path d="M180 0v-1490h510c348 0 508 209 508 474 0 266-160 477-507 477H370V0H180zm190-706h312c236 0 327-133 327-310 0-176-91-307-329-307H370v617" id="aq"/><path d="M613 24c-304 0-509-231-509-576 0-350 205-580 509-580 216 0 392 114 453 309l-173 49c-33-115-133-197-280-197-223 0-326 196-326 419 0 220 103 415 326 415 150 0 252-85 285-206l172 49C1010-95 832 24 613 24" id="ar"/><path d="M158 0v-1118h180V0H158zm91-1301c-68 0-125-53-125-119s57-119 125-119c69 0 126 53 126 119s-57 119-126 119" id="as"/><g id="d"><use transform="matrix(0.010850694444444444,0,0,0.010850694444444444,0,0)" xlink:href="#aq"/><use transform="matrix(0.010850694444444444,0,0,0.010850694444444444,14.192708333333332,0)" xlink:href="#ak"/><use transform="matrix(0.010850694444444444,0,0,0.010850694444444444,22.189670138888886,0)" xlink:href="#ag"/><use transform="matrix(0.010850694444444444,0,0,0.010850694444444444,35.514322916666664,0)" xlink:href="#ar"/><use transform="matrix(0.010850694444444444,0,0,0.010850694444444444,48.209635416666664,0)" xlink:href="#aj"/><use transform="matrix(0.010850694444444444,0,0,0.010850694444444444,61.16536458333333,0)" xlink:href="#an"/><use transform="matrix(0.010850694444444444,0,0,0.010850694444444444,72.89496527777777,0)" xlink:href="#an"/><use transform="matrix(0.010850694444444444,0,0,0.010850694444444444,84.62456597222221,0)" xlink:href="#as"/><use transform="matrix(0.010850694444444444,0,0,0.010850694444444444,90.00651041666666,0)" xlink:href="#ah"/><use transform="matrix(0.010850694444444444,0,0,0.010850694444444444,103.13585069444441,0)" xlink:href="#ap"/></g><path d="M763 24c-353 0-583-224-583-531v-983h190v968c0 214 149 370 393 370 243 0 391-156 391-370v-968h190v983c0 307-230 531-581 531" id="at"/><g id="e"><use transform="matrix(0.010850694444444444,0,0,0.010850694444444444,0,0)" xlink:href="#at"/><use transform="matrix(0.010850694444444444,0,0,0.010850694444444444,16.536458333333332,0)" xlink:href="#an"/><use transform="matrix(0.010850694444444444,0,0,0.010850694444444444,28.266059027777775,0)" xlink:href="#aj"/><use transform="matrix(0.010850694444444444,0,0,0.010850694444444444,41.22178819444444,0)" xlink:href="#ak"/><use transform="matrix(0.010850694444444444,0,0,0.010850694444444444,49.58767361111111,0)" xlink:href="#an"/></g><path d="M180 0v-1490h190v1322h690V0H180" id="au"/><path d="M677 24c-213 0-288-135-325-197h-20V0H158v-1490h180v551h14c37-59 106-193 324-193 279 0 474 222 474 576 0 356-194 580-473 580zm-27-161c209 0 317-186 317-421 0-232-105-413-317-413-206 0-314 166-314 413 0 249 111 421 314 421" id="av"/><path d="M577 24c-279 0-473-224-473-580 0-354 195-576 474-576 218 0 287 134 324 193h14v-551h180V0H922v-173h-20C865-111 790 24 577 24zm27-161c203 0 314-172 314-421 0-247-108-413-314-413-212 0-317 181-317 413 0 235 108 421 317 421" id="aw"/><g id="f"><use transform="matrix(0.010850694444444444,0,0,0.010850694444444444,0,0)" xlink:href="#au"/><use transform="matrix(0.010850694444444444,0,0,0.010850694444444444,12.565104166666666,0)" xlink:href="#ae"/><use transform="matrix(0.010850694444444444,0,0,0.010850694444444444,25.04340277777778,0)" xlink:href="#ad"/><use transform="matrix(0.010850694444444444,0,0,0.010850694444444444,44.50954861111111,0)" xlink:href="#av"/><use transform="matrix(0.010850694444444444,0,0,0.010850694444444444,58.11631944444444,0)" xlink:href="#aw"/><use transform="matrix(0.010850694444444444,0,0,0.010850694444444444,71.72309027777777,0)" xlink:href="#ae"/></g><g id="g"><use transform="matrix(0.010850694444444444,0,0,0.010850694444444444,0,0)" xlink:href="#aq"/><use transform="matrix(0.010850694444444444,0,0,0.010850694444444444,14.192708333333332,0)" xlink:href="#ak"/><use transform="matrix(0.010850694444444444,0,0,0.010850694444444444,22.189670138888886,0)" xlink:href="#aj"/><use transform="matrix(0.010850694444444444,0,0,0.010850694444444444,35.14539930555555,0)" xlink:href="#an"/><use transform="matrix(0.010850694444444444,0,0,0.010850694444444444,46.874999999999986,0)" xlink:href="#as"/><use transform="matrix(0.010850694444444444,0,0,0.010850694444444444,52.256944444444436,0)" xlink:href="#ap"/><use transform="matrix(0.010850694444444444,0,0,0.010850694444444444,65.88541666666666,0)" xlink:href="#ah"/><use transform="matrix(0.010850694444444444,0,0,0.010850694444444444,79.01475694444443,0)" xlink:href="#aj"/><use transform="matrix(0.010850694444444444,0,0,0.010850694444444444,91.97048611111111,0)" xlink:href="#ak"/></g><g id="h"><use transform="matrix(0.010850694444444444,0,0,0.010850694444444444,0,0)" xlink:href="#au"/><use transform="matrix(0.010850694444444444,0,0,0.010850694444444444,12.565104166666666,0)" xlink:href="#ae"/><use transform="matrix(0.010850694444444444,0,0,0.010850694444444444,25.04340277777778,0)" xlink:href="#ad"/><use transform="matrix(0.010850694444444444,0,0,0.010850694444444444,44.50954861111111,0)" xlink:href="#av"/><use transform="matrix(0.010850694444444444,0,0,0.010850694444444444,58.11631944444444,0)" xlink:href="#aw"/><use transform="matrix(0.010850694444444444,0,0,0.010850694444444444,71.72309027777777,0)" xlink:href="#ae"/></g><g id="i"><use transform="matrix(0.010850694444444444,0,0,0.010850694444444444,0,0)" xlink:href="#ao"/><use transform="matrix(0.010850694444444444,0,0,0.010850694444444444,5.967881944444445,0)" xlink:href="#ad"/><use transform="matrix(0.010850694444444444,0,0,0.010850694444444444,25.43402777777778,0)" xlink:href="#ae"/><use transform="matrix(0.010850694444444444,0,0,0.010850694444444444,37.912326388888886,0)" xlink:href="#ap"/><use transform="matrix(0.010850694444444444,0,0,0.010850694444444444,51.54079861111111,0)" xlink:href="#aj"/></g><g id="j"><use transform="matrix(0.010850694444444444,0,0,0.010850694444444444,0,0)" xlink:href="#aq"/><use transform="matrix(0.010850694444444444,0,0,0.010850694444444444,14.192708333333332,0)" xlink:href="#ak"/><use transform="matrix(0.010850694444444444,0,0,0.010850694444444444,22.189670138888886,0)" xlink:href="#ag"/><use transform="matrix(0.010850694444444444,0,0,0.010850694444444444,35.514322916666664,0)" xlink:href="#ar"/><use transform="matrix(0.010850694444444444,0,0,0.010850694444444444,48.209635416666664,0)" xlink:href="#aj"/><use transform="matrix(0.010850694444444444,0,0,0.010850694444444444,61.16536458333333,0)" xlink:href="#an"/><use transform="matrix(0.010850694444444444,0,0,0.010850694444444444,72.89496527777777,0)" xlink:href="#an"/><use transform="matrix(0.010850694444444444,0,0,0.010850694444444444,84.62456597222221,0)" xlink:href="#ag"/><use transform="matrix(0.010850694444444444,0,0,0.010850694444444444,97.94921874999997,0)" xlink:href="#ak"/></g><path d="M635 20c-292 0-500-160-510-396h192c11 142 145 229 315 229 187 0 323-105 323-260 0-161-125-274-346-274H488v-165h121c174 0 294-100 294-254 0-148-104-245-266-245-152 0-291 85-297 230H157c8-234 222-395 484-395 278 0 448 188 448 400 0 168-95 291-247 336v12c190 31 301 169 301 357 0 244-216 425-508 425" id="ax"/><g id="k"><use transform="matrix(0.010850694444444444,0,0,0.010850694444444444,0,0)" xlink:href="#ai"/><use transform="matrix(0.010850694444444444,0,0,0.010850694444444444,14.2578125,0)" xlink:href="#ax"/></g><path d="M180 0v-1490h510c348 0 508 194 508 460 0 198-88 351-276 417L1256 0h-220L726-579c-117 2-238 0-356 1V0H180zm190-747h312c235 0 327-108 327-283 0-177-92-293-329-293H370v576" id="ay"/><path d="M409 0L70-1118h191c89 329 165 560 243 925 75-353 154-601 240-925h192c85 325 161 564 235 922 77-354 157-598 244-922h191L1267 0h-179c-86-307-176-590-250-913C763-588 675-308 588 0H409" id="az"/><g id="l"><use transform="matrix(0.010850694444444444,0,0,0.010850694444444444,0,0)" xlink:href="#ay"/><use transform="matrix(0.010850694444444444,0,0,0.010850694444444444,14.192708333333332,0)" xlink:href="#ae"/><use transform="matrix(0.010850694444444444,0,0,0.010850694444444444,26.671006944444443,0)" xlink:href="#az"/></g><g id="m"><use transform="matrix(0.010850694444444444,0,0,0.010850694444444444,0,0)" xlink:href="#ao"/><use transform="matrix(0.010850694444444444,0,0,0.010850694444444444,5.967881944444445,0)" xlink:href="#ad"/><use transform="matrix(0.010850694444444444,0,0,0.010850694444444444,25.43402777777778,0)" xlink:href="#ae"/><use transform="matrix(0.010850694444444444,0,0,0.010850694444444444,37.912326388888886,0)" xlink:href="#ap"/><use transform="matrix(0.010850694444444444,0,0,0.010850694444444444,51.54079861111111,0)" xlink:href="#aj"/><use transform="matrix(0.010850694444444444,0,0,0.010850694444444444,64.49652777777777,0)" xlink:href="#an"/></g><path d="M537 14c-226 0-379-139-379-422v-710h180v695c0 172 97 275 253 275 160 0 281-109 281-300v-670h181V0H879v-209C806-46 684 14 537 14" id="aA"/><path d="M158 0v-1490h180v865h22l478-493h223L593-638 1096 0H865L456-523 338-412V0H158" id="aB"/><path d="M598-1118v154H368v674c0 100 37 144 132 144 23 0 62-6 92-12L629-6c-37 13-88 20-134 20-193 0-307-107-307-290v-688H20v-154h168v-266h180v266h230" id="aC"/><g id="n"><use transform="matrix(0.010850694444444444,0,0,0.010850694444444444,0,0)" xlink:href="#av"/><use transform="matrix(0.010850694444444444,0,0,0.010850694444444444,13.606770833333332,0)" xlink:href="#aA"/><use transform="matrix(0.010850694444444444,0,0,0.010850694444444444,26.746961805555554,0)" xlink:href="#ar"/><use transform="matrix(0.010850694444444444,0,0,0.010850694444444444,39.44227430555556,0)" xlink:href="#aB"/><use transform="matrix(0.010850694444444444,0,0,0.010850694444444444,51.13932291666667,0)" xlink:href="#aj"/><use transform="matrix(0.010850694444444444,0,0,0.010850694444444444,64.09505208333334,0)" xlink:href="#aC"/></g><g id="o"><use transform="matrix(0.010850694444444444,0,0,0.010850694444444444,0,0)" xlink:href="#ac"/><use transform="matrix(0.010850694444444444,0,0,0.010850694444444444,15.33203125,0)" xlink:href="#ad"/><use transform="matrix(0.010850694444444444,0,0,0.010850694444444444,34.79817708333333,0)" xlink:href="#ae"/><use transform="matrix(0.010850694444444444,0,0,0.010850694444444444,47.27647569444444,0)" xlink:href="#af"/><use transform="matrix(0.010850694444444444,0,0,0.010850694444444444,59.22309027777778,0)" xlink:href="#ag"/><use transform="matrix(0.010850694444444444,0,0,0.010850694444444444,72.54774305555554,0)" xlink:href="#ah"/></g><path d="M783 20c-382 0-661-292-661-764 0-473 279-766 661-766 302 0 548 182 601 489h-190c-42-204-217-313-411-313-268 0-476 208-476 590 0 381 209 588 476 588 195 0 369-110 411-313h190c-52 303-296 489-601 489" id="aD"/><path d="M180 0v-1490h901v168H370v510h643v168H370V0H180" id="aE"/><g id="p"><use transform="matrix(0.010850694444444444,0,0,0.010850694444444444,0,0)" xlink:href="#aD"/><use transform="matrix(0.010850694444444444,0,0,0.010850694444444444,16.23263888888889,0)" xlink:href="#am"/><use transform="matrix(0.010850694444444444,0,0,0.010850694444444444,21.614583333333336,0)" xlink:href="#ag"/><use transform="matrix(0.010850694444444444,0,0,0.010850694444444444,34.939236111111114,0)" xlink:href="#aA"/><use transform="matrix(0.010850694444444444,0,0,0.010850694444444444,48.07942708333333,0)" xlink:href="#aw"/><use transform="matrix(0.010850694444444444,0,0,0.010850694444444444,61.68619791666667,0)" xlink:href="#aE"/><use transform="matrix(0.010850694444444444,0,0,0.010850694444444444,74.15364583333334,0)" xlink:href="#ak"/><use transform="matrix(0.010850694444444444,0,0,0.010850694444444444,82.1506076388889,0)" xlink:href="#ag"/><use transform="matrix(0.010850694444444444,0,0,0.010850694444444444,95.47526041666666,0)" xlink:href="#ah"/><use transform="matrix(0.010850694444444444,0,0,0.010850694444444444,108.60460069444444,0)" xlink:href="#aC"/></g><path d="M645 0H180v-1490h484c435 0 692 280 692 742 0 466-257 748-711 748zM370-168h263c363 0 539-218 539-580 0-358-176-574-521-574H370v1154" id="aF"/><path d="M140 405l46-156c120 36 205 19 263-150l32-93L54-1118h197c107 313 237 620 324 950 87-331 219-637 326-950h196L606 167c-68 178-176 259-334 259-64 0-113-12-132-21" id="aG"/><path d="M180 0v-1490h528c311 0 458 177 458 395 0 191-114 278-244 313v14c139 9 302 137 302 371 0 225-148 397-499 397H180zm190-168h350c232 0 321-102 321-231 0-149-120-277-311-277H370v508zm0-668h328c160 0 286-101 286-255 0-129-87-231-280-231H370v486" id="aH"/><g id="q"><use transform="matrix(0.010850694444444444,0,0,0.010850694444444444,0,0)" xlink:href="#aF"/><use transform="matrix(0.010850694444444444,0,0,0.010850694444444444,16.03732638888889,0)" xlink:href="#aG"/><use transform="matrix(0.010850694444444444,0,0,0.010850694444444444,28.526475694444443,0)" xlink:href="#ah"/><use transform="matrix(0.010850694444444444,0,0,0.010850694444444444,41.65581597222222,0)" xlink:href="#ae"/><use transform="matrix(0.010850694444444444,0,0,0.010850694444444444,54.13411458333333,0)" xlink:href="#ad"/><use transform="matrix(0.010850694444444444,0,0,0.010850694444444444,73.60026041666666,0)" xlink:href="#ag"/><use transform="matrix(0.010850694444444444,0,0,0.010850694444444444,86.92491319444443,0)" xlink:href="#aF"/><use transform="matrix(0.010850694444444444,0,0,0.010850694444444444,102.96223958333331,0)" xlink:href="#aH"/></g><g id="r"><use transform="matrix(0.010850694444444444,0,0,0.010850694444444444,0,0)" xlink:href="#ao"/><use transform="matrix(0.010850694444444444,0,0,0.010850694444444444,5.967881944444445,0)" xlink:href="#ad"/><use transform="matrix(0.010850694444444444,0,0,0.010850694444444444,25.43402777777778,0)" xlink:href="#ae"/><use transform="matrix(0.010850694444444444,0,0,0.010850694444444444,37.912326388888886,0)" xlink:href="#ap"/><use transform="matrix(0.010850694444444444,0,0,0.010850694444444444,51.54079861111111,0)" xlink:href="#aj"/></g><path d="M180 0v-1490h270l367 940c28 72 75 218 110 339 35-117 81-264 110-339l362-940h271V0h-187c2-448-5-837 7-1287-157 497-311 829-483 1287H842C666-458 514-784 354-1284c12 438 5 843 7 1284H180" id="aI"/><g id="s"><use transform="matrix(0.010850694444444444,0,0,0.010850694444444444,0,0)" xlink:href="#aI"/><use transform="matrix(0.010850694444444444,0,0,0.010850694444444444,20.07378472222222,0)" xlink:href="#aj"/><use transform="matrix(0.010850694444444444,0,0,0.010850694444444444,33.029513888888886,0)" xlink:href="#aC"/><use transform="matrix(0.010850694444444444,0,0,0.010850694444444444,40.40798611111111,0)" xlink:href="#ae"/><use transform="matrix(0.010850694444444444,0,0,0.010850694444444444,52.88628472222221,0)" xlink:href="#aw"/><use transform="matrix(0.010850694444444444,0,0,0.010850694444444444,66.49305555555554,0)" xlink:href="#ae"/><use transform="matrix(0.010850694444444444,0,0,0.010850694444444444,78.97135416666666,0)" xlink:href="#aC"/><use transform="matrix(0.010850694444444444,0,0,0.010850694444444444,86.34982638888887,0)" xlink:href="#ae"/></g><path d="M98-1322v-168h1126v168H757V0H567v-1322H98" id="aJ"/><g id="t"><use transform="matrix(0.010416666666666668,0,0,0.010416666666666668,0,0)" xlink:href="#aq"/><use transform="matrix(0.010416666666666668,0,0,0.010416666666666668,13.625000000000002,0)" xlink:href="#at"/><use transform="matrix(0.010416666666666668,0,0,0.010416666666666668,29.500000000000004,0)" xlink:href="#aJ"/></g><path d="M784 20c-382 0-662-292-662-764 0-473 280-766 662-766s660 293 660 766c0 472-278 764-660 764zm0-176c266 0 475-207 475-588 0-383-209-590-475-590-268 0-477 208-477 590 0 380 209 588 477 588" id="aK"/><path d="M157-1118h181V80c1 225-123 350-364 338V252c126 9 184-48 183-172v-1198zm91-183c-68 0-125-53-125-119s57-119 125-119c69 0 126 53 126 119s-57 119-126 119" id="aL"/><g id="u"><use transform="matrix(0.010416666666666668,0,0,0.010416666666666668,0,0)" xlink:href="#aK"/><use transform="matrix(0.010416666666666668,0,0,0.010416666666666668,16.312500000000004,0)" xlink:href="#av"/><use transform="matrix(0.010416666666666668,0,0,0.010416666666666668,29.375000000000007,0)" xlink:href="#aL"/><use transform="matrix(0.010416666666666668,0,0,0.010416666666666668,34.54166666666667,0)" xlink:href="#aj"/><use transform="matrix(0.010416666666666668,0,0,0.010416666666666668,46.97916666666667,0)" xlink:href="#ar"/><use transform="matrix(0.010416666666666668,0,0,0.010416666666666668,59.16666666666667,0)" xlink:href="#aC"/></g><path d="M218-607c0-325 108-727 258-974h175c-155 315-250 682-250 974 0 265 78 531 250 886H476C306-10 218-315 218-607" id="aM"/><path d="M692-1560L212 224H46l480-1784h166" id="aN"/><path d="M96 279C273-86 346-350 346-607c0-292-95-659-250-974h175c150 246 258 650 258 974 0 297-91 602-258 886H96" id="aO"/><g id="v"><use transform="matrix(0.010416666666666668,0,0,0.010416666666666668,0,0)" xlink:href="#aM"/><use transform="matrix(0.010416666666666668,0,0,0.010416666666666668,7.781250000000001,0)" xlink:href="#ak"/><use transform="matrix(0.010416666666666668,0,0,0.010416666666666668,15.458333333333336,0)" xlink:href="#aj"/><use transform="matrix(0.010416666666666668,0,0,0.010416666666666668,27.895833333333336,0)" xlink:href="#an"/><use transform="matrix(0.010416666666666668,0,0,0.010416666666666668,39.15625,0)" xlink:href="#as"/><use transform="matrix(0.010416666666666668,0,0,0.010416666666666668,44.322916666666664,0)" xlink:href="#af"/><use transform="matrix(0.010416666666666668,0,0,0.010416666666666668,55.791666666666664,0)" xlink:href="#aj"/><use transform="matrix(0.010416666666666668,0,0,0.010416666666666668,68.22916666666667,0)" xlink:href="#aw"/><use transform="matrix(0.010416666666666668,0,0,0.010416666666666668,81.29166666666667,0)" xlink:href="#aN"/><use transform="matrix(0.010416666666666668,0,0,0.010416666666666668,88.97916666666667,0)" xlink:href="#az"/><use transform="matrix(0.010416666666666668,0,0,0.010416666666666668,106.43749999999999,0)" xlink:href="#ae"/><use transform="matrix(0.010416666666666668,0,0,0.010416666666666668,118.41666666666669,0)" xlink:href="#aC"/><use transform="matrix(0.010416666666666668,0,0,0.010416666666666668,125.18750000000001,0)" xlink:href="#aj"/><use transform="matrix(0.010416666666666668,0,0,0.010416666666666668,137.62500000000003,0)" xlink:href="#ak"/><use transform="matrix(0.010416666666666668,0,0,0.010416666666666668,145.98958333333337,0)" xlink:href="#ad"/><use transform="matrix(0.010416666666666668,0,0,0.010416666666666668,164.67708333333337,0)" xlink:href="#ae"/><use transform="matrix(0.010416666666666668,0,0,0.010416666666666668,176.65625000000003,0)" xlink:href="#ak"/><use transform="matrix(0.010416666666666668,0,0,0.010416666666666668,185.02083333333334,0)" xlink:href="#aB"/><use transform="matrix(0.010416666666666668,0,0,0.010416666666666668,196.25000000000006,0)" xlink:href="#aj"/><use transform="matrix(0.010416666666666668,0,0,0.010416666666666668,208.68750000000006,0)" xlink:href="#aw"/><use transform="matrix(0.010416666666666668,0,0,0.010416666666666668,221.75000000000006,0)" xlink:href="#aO"/></g><path d="M180 0v-1490h190v644h782v-644h190V0h-190v-678H370V0H180" id="aP"/><g id="w"><use transform="matrix(0.010416666666666668,0,0,0.010416666666666668,0,0)" xlink:href="#aP"/><use transform="matrix(0.010416666666666668,0,0,0.010416666666666668,15.854166666666668,0)" xlink:href="#aJ"/><use transform="matrix(0.010416666666666668,0,0,0.010416666666666668,29.625000000000004,0)" xlink:href="#aJ"/><use transform="matrix(0.010416666666666668,0,0,0.010416666666666668,43.395833333333336,0)" xlink:href="#aq"/><use transform="matrix(0.010416666666666668,0,0,0.010416666666666668,57.02083333333334,0)" xlink:href="#ai"/></g><path d="M158 418v-1536h174v179h20c37-59 106-193 324-193 279 0 474 222 474 576 0 356-194 580-473 580-213 0-288-135-325-197h-14v591H158zm492-555c209 0 317-186 317-421 0-232-105-413-317-413-206 0-314 166-314 413 0 249 111 421 314 421" id="aQ"/><g id="x"><use transform="matrix(0.010416666666666668,0,0,0.010416666666666668,0,0)" xlink:href="#at"/><use transform="matrix(0.010416666666666668,0,0,0.010416666666666668,15.875000000000002,0)" xlink:href="#aQ"/><use transform="matrix(0.010416666666666668,0,0,0.010416666666666668,28.937500000000004,0)" xlink:href="#am"/><use transform="matrix(0.010416666666666668,0,0,0.010416666666666668,34.10416666666667,0)" xlink:href="#ag"/><use transform="matrix(0.010416666666666668,0,0,0.010416666666666668,47.10416666666667,0)" xlink:href="#ae"/><use transform="matrix(0.010416666666666668,0,0,0.010416666666666668,59.08333333333334,0)" xlink:href="#aw"/></g><path d="M1096 418H916v-591h-14C865-111 790 24 577 24c-279 0-473-224-473-580 0-354 195-576 474-576 218 0 287 134 324 193h20v-179h174V418zM604-137c203 0 314-172 314-421 0-247-108-413-314-413-212 0-317 181-317 413 0 235 108 421 317 421" id="aR"/><g id="y"><use transform="matrix(0.010416666666666668,0,0,0.010416666666666668,0,0)" xlink:href="#ay"/><use transform="matrix(0.010416666666666668,0,0,0.010416666666666668,13.416666666666668,0)" xlink:href="#aj"/><use transform="matrix(0.010416666666666668,0,0,0.010416666666666668,25.854166666666668,0)" xlink:href="#aR"/><use transform="matrix(0.010416666666666668,0,0,0.010416666666666668,38.91666666666667,0)" xlink:href="#aA"/><use transform="matrix(0.010416666666666668,0,0,0.010416666666666668,51.53125000000001,0)" xlink:href="#aj"/><use transform="matrix(0.010416666666666668,0,0,0.010416666666666668,63.96875000000001,0)" xlink:href="#an"/><use transform="matrix(0.010416666666666668,0,0,0.010416666666666668,75.22916666666667,0)" xlink:href="#aC"/></g><path fill="#333" d="M440-1490V0H135v-1490h305" id="aS"/><path fill="#333" d="M428-647V0H128v-1118h283l4 231c63-156 176-245 348-245 232 0 384 159 384 421V0H847v-659c0-139-76-222-202-222-128 0-217 86-217 234" id="aT"/><path fill="#333" d="M443 0L31-1118h319c90 293 199 572 268 885 66-313 175-593 264-885h315L784 0H443" id="aU"/><path fill="#333" d="M628 22C291 22 81-210 81-554c0-346 210-578 547-578 336 0 547 232 547 578 0 344-211 576-547 576zm0-236c160 0 242-146 242-341 0-197-82-341-242-341S387-753 387-555c0 195 81 341 241 341" id="aV"/><path fill="#333" d="M128 0v-1490h300v802h17l366-430h347L740-633 1179 0H826L514-456l-86 97V0H128" id="aW"/><path fill="#333" d="M633 22C291 22 81-200 81-553c0-345 210-579 537-579 292 0 525 185 525 567v84H378c7 183 109 277 260 277 105 0 184-46 216-132l272 51C1071-99 893 22 633 22zM380-669h474c-15-146-94-237-233-237-143 0-229 99-241 237" id="aX"/><g id="z"><use transform="matrix(0.008680555555555556,0,0,0.008680555555555556,0,0)" xlink:href="#aS"/><use transform="matrix(0.008680555555555556,0,0,0.008680555555555556,4.991319444444445,0)" xlink:href="#aT"/><use transform="matrix(0.008680555555555556,0,0,0.008680555555555556,15.755208333333334,0)" xlink:href="#aU"/><use transform="matrix(0.008680555555555556,0,0,0.008680555555555556,26.09375,0)" xlink:href="#aV"/><use transform="matrix(0.008680555555555556,0,0,0.008680555555555556,36.99652777777778,0)" xlink:href="#aW"/><use transform="matrix(0.008680555555555556,0,0,0.008680555555555556,46.90972222222222,0)" xlink:href="#aX"/></g><path fill="#333" d="M135 0v-1490h305v1237h643V0H135" id="aY"/><path fill="#333" d="M440 22C227 22 68-92 68-313c0-250 202-322 422-343 195-21 271-24 271-105 0-95-63-149-175-149-116 0-187 57-211 129l-275-46c57-194 237-305 487-305 240 0 474 108 474 379V0H777v-155h-10C713-51 605 22 440 22zm85-211c140 0 238-93 238-211v-121c-37 26-156 42-222 51-111 16-185 59-185 149 0 87 70 132 169 132" id="aZ"/><path fill="#333" d="M128 0v-1118h278l12 217c60-163 185-234 319-234 143 0 236 81 288 251 63-172 205-251 359-251 205 0 357 138 357 381V0h-301v-697c0-126-76-187-177-187-114 0-184 79-184 196V0H789v-705c0-109-72-179-174-179-106 0-187 74-187 208V0H128" id="ba"/><path fill="#333" d="M754 19C571 19 479-89 437-179h-14V0H128v-1490h300v560h9c41-89 129-202 319-202 248 0 453 193 453 575 0 372-197 576-455 576zm-92-241c156 0 240-139 240-336 0-196-83-334-240-334-154 0-241 131-241 334 0 202 88 336 241 336" id="bb"/><path fill="#333" d="M537 19C279 19 81-185 81-557c0-382 206-575 454-575 190 0 278 113 318 202h10v-560h300V0H868v-179h-15C812-89 719 19 537 19zm92-241c153 0 240-134 240-336 0-203-86-334-240-334-158 0-240 138-240 334 0 197 84 336 240 336" id="bc"/><g id="A"><use transform="matrix(0.008680555555555556,0,0,0.008680555555555556,0,0)" xlink:href="#aY"/><use transform="matrix(0.008680555555555556,0,0,0.008680555555555556,10.052083333333334,0)" xlink:href="#aZ"/><use transform="matrix(0.008680555555555556,0,0,0.008680555555555556,20.37326388888889,0)" xlink:href="#ba"/><use transform="matrix(0.008680555555555556,0,0,0.008680555555555556,36.59722222222223,0)" xlink:href="#bb"/><use transform="matrix(0.008680555555555556,0,0,0.008680555555555556,47.80381944444445,0)" xlink:href="#bc"/><use transform="matrix(0.008680555555555556,0,0,0.008680555555555556,59.01041666666667,0)" xlink:href="#aZ"/></g><g id="B"><use transform="matrix(0.010416666666666668,0,0,0.010416666666666668,0,0)" xlink:href="#ai"/><use transform="matrix(0.010416666666666668,0,0,0.010416666666666668,13.687500000000002,0)" xlink:href="#ax"/></g><path d="M180 0v-1490h908v168H370v486h669v168H370v500h727V0H180" id="bd"/><g id="C"><use transform="matrix(0.010416666666666668,0,0,0.010416666666666668,0,0)" xlink:href="#bd"/><use transform="matrix(0.010416666666666668,0,0,0.010416666666666668,12.822916666666668,0)" xlink:href="#al"/><use transform="matrix(0.010416666666666668,0,0,0.010416666666666668,24.395833333333336,0)" xlink:href="#aj"/><use transform="matrix(0.010416666666666668,0,0,0.010416666666666668,36.833333333333336,0)" xlink:href="#ah"/><use transform="matrix(0.010416666666666668,0,0,0.010416666666666668,49.43749999999999,0)" xlink:href="#aC"/></g><g id="D"><use transform="matrix(0.010416666666666668,0,0,0.010416666666666668,0,0)" xlink:href="#aJ"/><use transform="matrix(0.010416666666666668,0,0,0.010416666666666668,12.562500000000002,0)" xlink:href="#ak"/><use transform="matrix(0.010416666666666668,0,0,0.010416666666666668,20.927083333333336,0)" xlink:href="#as"/><use transform="matrix(0.010416666666666668,0,0,0.010416666666666668,26.093750000000004,0)" xlink:href="#ap"/><use transform="matrix(0.010416666666666668,0,0,0.010416666666666668,39.177083333333336,0)" xlink:href="#ap"/><use transform="matrix(0.010416666666666668,0,0,0.010416666666666668,52.26041666666667,0)" xlink:href="#aj"/><use transform="matrix(0.010416666666666668,0,0,0.010416666666666668,64.69791666666667,0)" xlink:href="#ak"/></g><g id="E"><use transform="matrix(0.010416666666666668,0,0,0.010416666666666668,0,0)" xlink:href="#aK"/><use transform="matrix(0.010416666666666668,0,0,0.010416666666666668,16.312500000000004,0)" xlink:href="#ak"/><use transform="matrix(0.010416666666666668,0,0,0.010416666666666668,24.677083333333336,0)" xlink:href="#as"/><use transform="matrix(0.010416666666666668,0,0,0.010416666666666668,29.843750000000004,0)" xlink:href="#ap"/><use transform="matrix(0.010416666666666668,0,0,0.010416666666666668,42.927083333333336,0)" xlink:href="#as"/><use transform="matrix(0.010416666666666668,0,0,0.010416666666666668,48.09374999999999,0)" xlink:href="#ah"/></g><path d="M458 0L52-1490h194c108 439 233 855 324 1313 92-459 221-873 331-1313h216c110 438 234 854 330 1307 92-455 216-869 323-1307h196L1558 0h-221l-256-944c-26-95-50-200-73-331-22 122-44 223-73 331L680 0H458" id="be"/><g id="F"><use transform="matrix(0.010416666666666668,0,0,0.010416666666666668,0,0)" xlink:href="#be"/><use transform="matrix(0.010416666666666668,0,0,0.010416666666666668,20.302083333333336,0)" xlink:href="#ak"/><use transform="matrix(0.010416666666666668,0,0,0.010416666666666668,28.66666666666667,0)" xlink:href="#as"/><use transform="matrix(0.010416666666666668,0,0,0.010416666666666668,33.833333333333336,0)" xlink:href="#aC"/><use transform="matrix(0.010416666666666668,0,0,0.010416666666666668,40.60416666666667,0)" xlink:href="#aj"/></g><g id="G"><use transform="matrix(0.010416666666666668,0,0,0.010416666666666668,0,0)" xlink:href="#aI"/><use transform="matrix(0.010416666666666668,0,0,0.010416666666666668,19.270833333333336,0)" xlink:href="#aj"/><use transform="matrix(0.010416666666666668,0,0,0.010416666666666668,31.708333333333336,0)" xlink:href="#aC"/><use transform="matrix(0.010416666666666668,0,0,0.010416666666666668,38.79166666666667,0)" xlink:href="#ae"/><use transform="matrix(0.010416666666666668,0,0,0.010416666666666668,50.770833333333336,0)" xlink:href="#aw"/><use transform="matrix(0.010416666666666668,0,0,0.010416666666666668,63.83333333333334,0)" xlink:href="#ae"/><use transform="matrix(0.010416666666666668,0,0,0.010416666666666668,75.81250000000001,0)" xlink:href="#aC"/><use transform="matrix(0.010416666666666668,0,0,0.010416666666666668,82.89583333333336,0)" xlink:href="#ae"/></g><path d="M789 20c-398 0-667-293-667-764 0-473 273-766 655-766 315 0 558 198 612 487h-196c-61-191-204-311-415-311-262 0-471 207-471 590 0 380 208 588 482 588 249 0 420-165 425-427H828v-166h572v163c0 370-256 606-611 606" id="bf"/><g id="H"><use transform="matrix(0.010416666666666668,0,0,0.010416666666666668,0,0)" xlink:href="#bf"/><use transform="matrix(0.010416666666666668,0,0,0.010416666666666668,15.916666666666668,0)" xlink:href="#bd"/><use transform="matrix(0.010416666666666668,0,0,0.010416666666666668,28.739583333333336,0)" xlink:href="#aJ"/></g><g id="I"><use transform="matrix(0.010416666666666668,0,0,0.010416666666666668,0,0)" xlink:href="#ay"/><use transform="matrix(0.010416666666666668,0,0,0.010416666666666668,13.416666666666668,0)" xlink:href="#aj"/><use transform="matrix(0.010416666666666668,0,0,0.010416666666666668,25.854166666666668,0)" xlink:href="#aR"/><use transform="matrix(0.010416666666666668,0,0,0.010416666666666668,38.91666666666667,0)" xlink:href="#aA"/><use transform="matrix(0.010416666666666668,0,0,0.010416666666666668,51.53125000000001,0)" xlink:href="#aj"/><use transform="matrix(0.010416666666666668,0,0,0.010416666666666668,63.96875000000001,0)" xlink:href="#an"/><use transform="matrix(0.010416666666666668,0,0,0.010416666666666668,75.22916666666667,0)" xlink:href="#aC"/></g><g id="J"><use transform="matrix(0.010416666666666668,0,0,0.010416666666666668,0,0)" xlink:href="#aM"/><use transform="matrix(0.010416666666666668,0,0,0.010416666666666668,7.781250000000001,0)" xlink:href="#as"/><use transform="matrix(0.010416666666666668,0,0,0.010416666666666668,12.947916666666668,0)" xlink:href="#ad"/><use transform="matrix(0.010416666666666668,0,0,0.010416666666666668,31.63541666666667,0)" xlink:href="#ae"/><use transform="matrix(0.010416666666666668,0,0,0.010416666666666668,43.614583333333336,0)" xlink:href="#ap"/><use transform="matrix(0.010416666666666668,0,0,0.010416666666666668,56.697916666666686,0)" xlink:href="#aj"/></g><g id="K"><use transform="matrix(0.010416666666666668,0,0,0.010416666666666668,0,0)" xlink:href="#aw"/><use transform="matrix(0.010416666666666668,0,0,0.010416666666666668,13.062500000000002,0)" xlink:href="#aj"/><use transform="matrix(0.010416666666666668,0,0,0.010416666666666668,25.500000000000004,0)" xlink:href="#am"/><use transform="matrix(0.010416666666666668,0,0,0.010416666666666668,30.66666666666667,0)" xlink:href="#as"/><use transform="matrix(0.010416666666666668,0,0,0.010416666666666668,35.833333333333336,0)" xlink:href="#al"/><use transform="matrix(0.010416666666666668,0,0,0.010416666666666668,47.40625000000001,0)" xlink:href="#aj"/><use transform="matrix(0.010416666666666668,0,0,0.010416666666666668,59.84375000000001,0)" xlink:href="#ak"/><use transform="matrix(0.010416666666666668,0,0,0.010416666666666668,68.20833333333334,0)" xlink:href="#aG"/><use transform="matrix(0.010416666666666668,0,0,0.010416666666666668,80.19791666666667,0)" xlink:href="#aO"/></g><g id="L"><use transform="matrix(0.010850694444444444,0,0,0.010850694444444444,0,0)" xlink:href="#ao"/><use transform="matrix(0.010850694444444444,0,0,0.010850694444444444,5.967881944444445,0)" xlink:href="#ad"/><use transform="matrix(0.010850694444444444,0,0,0.010850694444444444,25.43402777777778,0)" xlink:href="#ae"/><use transform="matrix(0.010850694444444444,0,0,0.010850694444444444,37.912326388888886,0)" xlink:href="#ap"/><use transform="matrix(0.010850694444444444,0,0,0.010850694444444444,51.54079861111111,0)" xlink:href="#aj"/></g><g id="M"><use transform="matrix(0.010850694444444444,0,0,0.010850694444444444,0,0)" xlink:href="#aq"/><use transform="matrix(0.010850694444444444,0,0,0.010850694444444444,14.192708333333332,0)" xlink:href="#ak"/><use transform="matrix(0.010850694444444444,0,0,0.010850694444444444,22.189670138888886,0)" xlink:href="#ag"/><use transform="matrix(0.010850694444444444,0,0,0.010850694444444444,35.514322916666664,0)" xlink:href="#ar"/><use transform="matrix(0.010850694444444444,0,0,0.010850694444444444,48.209635416666664,0)" xlink:href="#aj"/><use transform="matrix(0.010850694444444444,0,0,0.010850694444444444,61.16536458333333,0)" xlink:href="#an"/><use transform="matrix(0.010850694444444444,0,0,0.010850694444444444,72.89496527777777,0)" xlink:href="#an"/><use transform="matrix(0.010850694444444444,0,0,0.010850694444444444,84.62456597222221,0)" xlink:href="#as"/><use transform="matrix(0.010850694444444444,0,0,0.010850694444444444,90.00651041666666,0)" xlink:href="#ah"/><use transform="matrix(0.010850694444444444,0,0,0.010850694444444444,103.13585069444441,0)" xlink:href="#ap"/></g><path fill="#333" d="M135 0v-1490h581c339 0 533 210 533 503 0 295-197 500-540 500H440V0H135zm305-733h220c186 0 274-104 274-254s-88-251-275-251H440v505" id="bg"/><path fill="#333" d="M128 0v-1118h290v195h12c54-169 184-238 367-200v268c-27-8-86-15-130-15-138 0-239 95-239 234V0H128" id="bh"/><path fill="#333" d="M818-733v240H140v-240h678" id="bi"/><path fill="#333" d="M572 22C302 22 117-98 78-306l279-48c29 105 101 156 224 156 114 0 185-48 185-115 0-118-228-130-337-155-215-49-322-150-322-317 0-215 187-347 470-347 265 0 424 116 466 298l-266 47c-24-76-87-130-196-130-98 0-174 46-174 113 0 56 38 95 144 117l201 40c216 44 320 143 320 302 0 220-207 367-500 367" id="bj"/><path fill="#333" d="M128 0v-1118h300V0H128zm150-1264c-91 0-165-68-165-154 0-85 74-154 165-154 90 0 165 69 165 154 0 86-75 154-165 154" id="bk"/><path fill="#333" d="M625 442c-280 0-454-114-503-274l258-72c28 63 97 128 243 128 153 0 246-69 246-216v-206h-23C805-108 717-16 536-16 284-16 81-191 81-561c0-378 208-571 456-571 188 0 280 113 321 202h13v-188h295V-9c0 303-226 451-541 451zm5-686c153 0 240-119 240-319 0-198-86-329-240-329-158 0-241 137-241 329 0 195 85 319 241 319" id="bl"/><g id="N"><use transform="matrix(0.008680555555555556,0,0,0.008680555555555556,0,0)" xlink:href="#bg"/><use transform="matrix(0.008680555555555556,0,0,0.008680555555555556,11.519097222222223,0)" xlink:href="#bh"/><use transform="matrix(0.008680555555555556,0,0,0.008680555555555556,18.32465277777778,0)" xlink:href="#aX"/><use transform="matrix(0.008680555555555556,0,0,0.008680555555555556,28.914930555555557,0)" xlink:href="#bi"/><use transform="matrix(0.008680555555555556,0,0,0.008680555555555556,37.23090277777778,0)" xlink:href="#bj"/><use transform="matrix(0.008680555555555556,0,0,0.008680555555555556,47.1875,0)" xlink:href="#bk"/><use transform="matrix(0.008680555555555556,0,0,0.008680555555555556,52.005208333333336,0)" xlink:href="#bl"/><use transform="matrix(0.008680555555555556,0,0,0.008680555555555556,63.23784722222223,0)" xlink:href="#aT"/><use transform="matrix(0.008680555555555556,0,0,0.008680555555555556,74.30555555555556,0)" xlink:href="#aX"/><use transform="matrix(0.008680555555555556,0,0,0.008680555555555556,84.89583333333334,0)" xlink:href="#bc"/></g><path fill="#333" d="M750 21c-371 0-615-218-615-544v-967h305v942c0 174 123 299 310 299s309-125 309-299v-942h306v967c0 326-247 544-615 544" id="bm"/><path fill="#333" d="M75-1237v-253h1217v253H837V0H531v-1237H75" id="bn"/><g id="O"><use transform="matrix(0.008680555555555556,0,0,0.008680555555555556,0,0)" xlink:href="#bg"/><use transform="matrix(0.008680555555555556,0,0,0.008680555555555556,11.519097222222223,0)" xlink:href="#bm"/><use transform="matrix(0.008680555555555556,0,0,0.008680555555555556,24.53125,0)" xlink:href="#bn"/></g><path fill="#333" d="M135 0v-1490h581c339 0 533 192 533 485 0 204-94 351-264 424L1302 0H964L680-532H440V0H135zm305-779h220c186 0 274-77 274-226 0-150-88-233-275-233H440v459" id="bo"/><g id="P"><use transform="matrix(0.008680555555555556,0,0,0.008680555555555556,0,0)" xlink:href="#bm"/><use transform="matrix(0.008680555555555556,0,0,0.008680555555555556,13.012152777777779,0)" xlink:href="#bo"/><use transform="matrix(0.008680555555555556,0,0,0.008680555555555556,24.6875,0)" xlink:href="#aY"/></g><g id="Q"><use transform="matrix(0.010850694444444444,0,0,0.010850694444444444,0,0)" xlink:href="#ac"/><use transform="matrix(0.010850694444444444,0,0,0.010850694444444444,15.33203125,0)" xlink:href="#ad"/><use transform="matrix(0.010850694444444444,0,0,0.010850694444444444,34.79817708333333,0)" xlink:href="#ae"/><use transform="matrix(0.010850694444444444,0,0,0.010850694444444444,47.27647569444444,0)" xlink:href="#af"/><use transform="matrix(0.010850694444444444,0,0,0.010850694444444444,59.22309027777778,0)" xlink:href="#ag"/><use transform="matrix(0.010850694444444444,0,0,0.010850694444444444,72.54774305555554,0)" xlink:href="#ah"/></g><g id="R"><use transform="matrix(0.010850694444444444,0,0,0.010850694444444444,0,0)" xlink:href="#ac"/><use transform="matrix(0.010850694444444444,0,0,0.010850694444444444,15.33203125,0)" xlink:href="#aq"/><use transform="matrix(0.010850694444444444,0,0,0.010850694444444444,29.524739583333332,0)" xlink:href="#ao"/></g><g id="S"><use transform="matrix(0.010850694444444444,0,0,0.010850694444444444,0,0)" xlink:href="#bf"/><use transform="matrix(0.010850694444444444,0,0,0.010850694444444444,16.57986111111111,0)" xlink:href="#ae"/><use transform="matrix(0.010850694444444444,0,0,0.010850694444444444,29.05815972222222,0)" xlink:href="#aC"/><use transform="matrix(0.010850694444444444,0,0,0.010850694444444444,36.11111111111111,0)" xlink:href="#aj"/><use transform="matrix(0.010850694444444444,0,0,0.010850694444444444,48.66536458333333,0)" xlink:href="#az"/><use transform="matrix(0.010850694444444444,0,0,0.010850694444444444,66.85112847222221,0)" xlink:href="#ae"/><use transform="matrix(0.010850694444444444,0,0,0.010850694444444444,79.00390625,0)" xlink:href="#aG"/></g><g id="T"><use transform="matrix(0.010850694444444444,0,0,0.010850694444444444,0,0)" xlink:href="#aq"/><use transform="matrix(0.010850694444444444,0,0,0.010850694444444444,14.192708333333332,0)" xlink:href="#ak"/><use transform="matrix(0.010850694444444444,0,0,0.010850694444444444,22.189670138888886,0)" xlink:href="#ag"/><use transform="matrix(0.010850694444444444,0,0,0.010850694444444444,35.514322916666664,0)" xlink:href="#ar"/><use transform="matrix(0.010850694444444444,0,0,0.010850694444444444,48.209635416666664,0)" xlink:href="#aj"/><use transform="matrix(0.010850694444444444,0,0,0.010850694444444444,61.16536458333333,0)" xlink:href="#an"/><use transform="matrix(0.010850694444444444,0,0,0.010850694444444444,72.89496527777777,0)" xlink:href="#an"/><use transform="matrix(0.010850694444444444,0,0,0.010850694444444444,84.62456597222221,0)" xlink:href="#aj"/><use transform="matrix(0.010850694444444444,0,0,0.010850694444444444,97.58029513888889,0)" xlink:href="#aw"/></g><g id="U"><use transform="matrix(0.010850694444444444,0,0,0.010850694444444444,0,0)" xlink:href="#ao"/><use transform="matrix(0.010850694444444444,0,0,0.010850694444444444,5.967881944444445,0)" xlink:href="#ad"/><use transform="matrix(0.010850694444444444,0,0,0.010850694444444444,25.43402777777778,0)" xlink:href="#ae"/><use transform="matrix(0.010850694444444444,0,0,0.010850694444444444,37.912326388888886,0)" xlink:href="#ap"/><use transform="matrix(0.010850694444444444,0,0,0.010850694444444444,51.54079861111111,0)" xlink:href="#aj"/><use transform="matrix(0.010850694444444444,0,0,0.010850694444444444,64.49652777777777,0)" xlink:href="#an"/></g><g id="V"><use transform="matrix(0.010850694444444444,0,0,0.010850694444444444,0,0)" xlink:href="#ai"/><use transform="matrix(0.010850694444444444,0,0,0.010850694444444444,14.2578125,0)" xlink:href="#aC"/><use transform="matrix(0.010850694444444444,0,0,0.010850694444444444,21.63628472222222,0)" xlink:href="#ae"/><use transform="matrix(0.010850694444444444,0,0,0.010850694444444444,34.11458333333333,0)" xlink:href="#aC"/><use transform="matrix(0.010850694444444444,0,0,0.010850694444444444,41.38454861111111,0)" xlink:href="#as"/><use transform="matrix(0.010850694444444444,0,0,0.010850694444444444,46.76649305555556,0)" xlink:href="#ar"/></g><g id="W"><use transform="matrix(0.010850694444444444,0,0,0.010850694444444444,0,0)" xlink:href="#be"/><use transform="matrix(0.010850694444444444,0,0,0.010850694444444444,20.768229166666668,0)" xlink:href="#aj"/><use transform="matrix(0.010850694444444444,0,0,0.010850694444444444,33.723958333333336,0)" xlink:href="#av"/><use transform="matrix(0.010850694444444444,0,0,0.010850694444444444,47.33072916666667,0)" xlink:href="#an"/><use transform="matrix(0.010850694444444444,0,0,0.010850694444444444,59.06032986111112,0)" xlink:href="#as"/><use transform="matrix(0.010850694444444444,0,0,0.010850694444444444,64.44227430555556,0)" xlink:href="#aC"/><use transform="matrix(0.010850694444444444,0,0,0.010850694444444444,71.49522569444444,0)" xlink:href="#aj"/></g><g id="X"><use transform="matrix(0.010416666666666668,0,0,0.010416666666666668,0,0)" xlink:href="#aA"/><use transform="matrix(0.010416666666666668,0,0,0.010416666666666668,12.614583333333334,0)" xlink:href="#aQ"/><use transform="matrix(0.010416666666666668,0,0,0.010416666666666668,25.677083333333336,0)" xlink:href="#am"/><use transform="matrix(0.010416666666666668,0,0,0.010416666666666668,30.843750000000004,0)" xlink:href="#ag"/><use transform="matrix(0.010416666666666668,0,0,0.010416666666666668,43.84374999999999,0)" xlink:href="#ae"/><use transform="matrix(0.010416666666666668,0,0,0.010416666666666668,55.82291666666667,0)" xlink:href="#aw"/><use transform="matrix(0.010416666666666668,0,0,0.010416666666666668,68.88541666666667,0)" xlink:href="#aO"/></g><g id="Y"><use transform="matrix(0.010850694444444444,0,0,0.010850694444444444,0,0)" xlink:href="#ac"/><use transform="matrix(0.010850694444444444,0,0,0.010850694444444444,15.33203125,0)" xlink:href="#aq"/><use transform="matrix(0.010850694444444444,0,0,0.010850694444444444,29.524739583333332,0)" xlink:href="#ao"/></g><g id="Z"><use transform="matrix(0.010850694444444444,0,0,0.010850694444444444,0,0)" xlink:href="#bf"/><use transform="matrix(0.010850694444444444,0,0,0.010850694444444444,16.57986111111111,0)" xlink:href="#ae"/><use transform="matrix(0.010850694444444444,0,0,0.010850694444444444,29.05815972222222,0)" xlink:href="#aC"/><use transform="matrix(0.010850694444444444,0,0,0.010850694444444444,36.11111111111111,0)" xlink:href="#aj"/><use transform="matrix(0.010850694444444444,0,0,0.010850694444444444,48.66536458333333,0)" xlink:href="#az"/><use transform="matrix(0.010850694444444444,0,0,0.010850694444444444,66.85112847222221,0)" xlink:href="#ae"/><use transform="matrix(0.010850694444444444,0,0,0.010850694444444444,79.00390625,0)" xlink:href="#aG"/></g><path d="M580 20c-295 0-476-179-476-409 0-189 123-290 294-416-104-125-173-226-173-362 0-197 144-337 365-337 224 0 362 144 362 321 0 185-174 312-306 405l319 387c38-75 61-165 61-267h173c0 208-62 332-120 406L1287 0h-217L967-124C868-27 716 20 580 20zm279-273L507-675l-51 38c-123 91-167 162-167 254 0 147 113 246 278 246 107 0 210-41 292-116zM538-908l97-72c54-40 136-101 136-206 0-95-68-163-176-163-113 0-189 74-189 181 0 90 53 164 132 260" id="bp"/><use transform="matrix(0.010850694444444444,0,0,0.010850694444444444,0,0)" xlink:href="#bp" id="aa"/><g id="ab"><use transform="matrix(0.010850694444444444,0,0,0.010850694444444444,0,0)" xlink:href="#au"/><use transform="matrix(0.010850694444444444,0,0,0.010850694444444444,12.565104166666666,0)" xlink:href="#ae"/><use transform="matrix(0.010850694444444444,0,0,0.010850694444444444,25.04340277777778,0)" xlink:href="#ad"/><use transform="matrix(0.010850694444444444,0,0,0.010850694444444444,44.50954861111111,0)" xlink:href="#av"/><use transform="matrix(0.010850694444444444,0,0,0.010850694444444444,58.11631944444444,0)" xlink:href="#aw"/><use transform="matrix(0.010850694444444444,0,0,0.010850694444444444,71.72309027777777,0)" xlink:href="#ae"/></g></defs></g></svg>